<svg width="264" height="274" viewBox="0 0 264 274" fill="none" xmlns="http://www.w3.org/2000/svg">
<g clip-path="url(#clip0_0_421)">
<path d="M51.0989 94.7838C51.2998 90.3716 51.3493 86.1576 51.7264 81.9788C52.025 78.655 52.6085 75.3516 53.2523 72.0809C55.1208 62.5392 60.5638 55.4659 68.6133 50.2957C70.5298 49.0656 72.5487 47.9541 74.6091 46.982C84.736 42.2162 95.8237 44.4013 103.5 52.7017C105.396 54.7481 107.063 57.0133 108.907 59.2625C110.021 58.984 111.028 58.758 112.028 58.482C121.881 55.7674 131.792 55.5456 141.786 57.6707C152.051 59.8589 161.592 63.7589 170.438 69.4281C172.05 70.4592 173.76 71.452 175.561 72.0535C192.304 77.607 205.553 87.9664 216.524 101.553C220.745 106.776 224.339 112.422 227.593 118.26C231.883 125.944 235.793 133.832 239.929 141.6C242.462 146.362 241.873 151.142 240.19 155.914C236.902 165.218 233.039 174.271 227.962 182.763C220.955 194.471 212.14 204.712 202.32 214.094C198.132 218.095 193.721 221.876 189.17 225.46C183.036 230.288 176.272 233.933 168.508 235.572C166.684 235.958 164.979 237.094 163.311 238.034C154.697 242.903 145.627 246.549 136.046 249.148C127.075 251.582 119.752 249.535 113.696 242.608C109.415 237.716 104.991 232.929 100.975 227.818C98.141 224.198 95.1894 220.955 91.4143 218.203C81.013 210.64 71.4863 202.019 62.6141 192.688C55.5714 185.285 48.9305 177.561 43.1615 169.1C36.2522 158.96 30.9664 148.115 28.7631 135.94C27.9117 131.243 27.4846 126.508 28.0624 121.76C29.6493 108.832 36.4498 100.057 48.9094 95.8545C49.406 95.6915 49.8958 95.4964 50.382 95.2941C50.5429 95.2243 50.6723 95.09 51.0989 94.7838ZM229.478 132.721C227.196 128.742 224.06 123.237 220.896 117.745C217.549 111.934 213.711 106.461 209.263 101.446C200.266 91.2796 189.755 83.2025 176.919 78.4198C171.608 76.4451 166.169 75.022 160.48 74.8658C147.61 74.511 138.15 79.9712 132.423 91.6306C129.686 97.203 127.977 103.099 127.049 109.233C125.966 116.394 125.724 123.587 126.084 130.814C126.892 147.097 130.066 162.926 135.535 178.262C138.846 187.552 142.71 196.615 148.006 205.015C151.29 210.226 154.202 215.673 157.515 220.852C159.207 223.495 161.393 225.826 163.432 228.237C164.804 229.865 166.61 230.349 168.678 229.791C169.863 229.477 171.151 229.372 172.228 228.836C175.988 226.953 179.858 225.185 183.362 222.885C190.001 218.529 195.677 212.984 201.303 207.428C215.904 193.009 227.167 176.423 233.972 156.941C234.665 154.95 235.323 152.942 235.821 150.896C236.419 148.438 236.186 146.076 234.919 143.757C233.238 140.682 231.794 137.456 229.478 132.721ZM156.569 69.2245C156.313 68.6481 156.264 68.202 156.058 68.1074C147.657 64.2001 138.813 62.0893 129.556 61.7431C127.892 61.6777 126.463 62.1993 125.217 63.3144C122.471 65.767 119.541 68.0431 116.968 70.6684C109.478 78.3074 104.189 87.4537 99.9496 97.1696C93.9046 111.026 91.6958 125.456 94.267 140.505C96.8008 155.333 101.274 169.558 107.223 183.354C109.1 187.718 110.802 192.158 112.492 196.595C113.308 198.753 113.702 201.028 113.106 203.326C112.561 205.421 111.059 206.537 109.017 206.985C107.175 207.389 106.051 206.269 105.058 204.962C104.843 204.686 104.66 204.385 104.484 204.08C100.963 198.186 97.3962 192.305 94.7523 185.938C90.9663 176.818 87.6948 167.535 85.3881 157.922C82.1208 144.315 80.5149 130.569 81.7973 116.565C82.8565 104.969 86.4098 94.2129 92.3655 84.2171C95.4373 79.0578 99.0613 74.3208 103.103 69.8944C103.628 69.3181 104.03 68.6158 104.625 67.7834C103.874 67.6802 103.519 67.5165 103.286 67.6213C87.8812 74.6663 76.6147 85.7503 70.6124 101.743C65.6888 114.864 64.2856 128.404 66.9738 142.241C69.6076 155.768 73.8916 168.808 79.2977 181.458C86.1226 197.427 95.5469 211.877 106.164 225.538C110.042 230.53 114.425 235.124 118.658 239.827C122.696 244.314 127.713 245.634 133.509 244.033C134.016 243.892 134.53 243.764 135.041 243.648C142.97 241.785 150.446 238.742 157.618 234.933C158.352 234.548 158.991 233.969 160.08 233.187C155.25 228.803 152.546 223.237 149.337 218.016C142.412 206.756 135.93 195.298 131.353 182.801C124.87 165.12 121.139 146.955 120.477 128.159C120.192 120.052 120.709 111.97 122.425 104.003C123.804 97.5941 125.915 91.449 129.333 85.8187C134.644 77.0791 142.205 71.5443 152.419 69.8956C153.782 69.6907 155.142 69.4609 156.569 69.2245ZM44.3067 124.682C39.1878 125.401 36.4764 127.943 35.4596 132.354C34.5169 136.428 35.15 140.388 36.5321 144.266C39.0211 151.259 42.3113 157.879 46.3999 164.046C56.47 179.254 69.0494 192.213 82.6952 204.199C83.1409 204.584 83.6873 205.285 84.6556 204.545C83.9234 203.048 83.1595 201.522 82.4241 199.982C78.7895 192.368 74.7937 184.904 71.6631 177.088C69.6633 172.092 66.9779 167.706 63.6845 163.582C62.2564 161.804 60.7135 160.118 59.1957 158.41C55.2212 153.927 51.6088 149.187 48.7278 143.912C45.559 138.103 43.2827 132.088 44.3067 124.682ZM109.112 201.631C109.031 200.649 109.161 199.592 108.837 198.694C107.483 194.891 106.161 191.064 104.535 187.376C98.5522 173.818 93.8947 159.852 90.9916 145.302C89.2919 136.804 88.6328 128.295 89.6994 119.633C92.1074 100.135 100.503 83.4511 113.157 68.7148C114.158 67.551 115.409 66.5928 116.186 64.8993C115.44 65.0956 114.894 65.1048 114.507 65.365C113.346 66.1458 112.171 66.9336 111.137 67.8653C97.8932 79.783 89.3659 94.3652 86.4848 112.062C84.945 121.497 85.1292 130.975 86.2971 140.435C88.2127 155.902 92.5996 170.693 98.7832 184.952C101.363 190.898 104.272 196.719 109.112 201.631ZM65.1828 99.5603C59.3661 98.9251 54.0787 99.7532 48.9211 101.681C39.9283 105.049 33.919 113.375 33.5603 123.013C33.5472 123.312 33.8368 123.615 34.054 124.059C35.0683 123.341 36.0399 122.626 37.0431 121.958C40.6478 119.538 44.6242 118.259 48.9685 118.567C51.7496 118.761 54.5133 119.335 57.271 119.771C58.2709 119.93 59.2522 120.178 60.3869 120.413C61.0913 116.704 61.6441 113.247 62.4244 109.839C63.2081 106.455 64.2266 103.117 65.1828 99.5603ZM102.67 61.6291C98.57 52.1568 87.7234 47.5636 78.5144 51.2148C74.5641 52.7826 71.0002 55.0136 67.7844 57.7934C67.3287 58.1849 67.0952 58.8317 66.3658 59.9873C70.9328 59.6624 74.7861 60.3079 77.8973 62.7898C80.8774 65.1671 83.4939 67.9974 86.5305 70.8708C89.0342 69.3003 91.6357 67.5488 94.3495 65.9909C97.074 64.4367 99.9074 63.0689 102.67 61.6291ZM71.4914 87.4035C67.988 77.737 67.9893 76.7245 71.3667 66.1342C65.0223 64.6919 60.0358 67.4588 58.5603 73.4708C57.1839 79.1236 56.7292 84.9204 56.7517 90.7324C56.7577 91.7236 57.0558 92.714 57.2253 93.7496C60.7904 93.9324 64.099 94.0986 67.6748 94.2851C68.9374 92.0078 70.1999 89.7305 71.4914 87.4035ZM50.3713 125.08C48.8717 128.849 49.6308 132.233 50.9 135.553C53.3791 142.019 57.1619 147.688 61.7077 152.868C62.1242 153.339 62.4062 154.133 63.6541 153.602C62.8066 149.295 61.7778 144.924 61.1379 140.497C60.4877 136.031 60.2299 131.497 59.8102 127.157C55.1823 124.547 55.1823 124.547 50.3713 125.08ZM81.4034 75.544C80.8733 73.3177 79.9267 71.9077 78.5751 70.7756C77.5455 69.9032 76.1106 70.2144 75.4772 71.3851C73.8521 74.4078 73.9452 77.7531 75.9425 81.3478C77.7653 79.4001 79.516 77.5409 81.4034 75.544Z" fill="black"/>
<path d="M229.478 132.721C231.797 137.464 233.238 140.682 234.923 143.764C236.19 146.083 236.423 148.445 235.825 150.904C235.327 152.949 234.672 154.965 233.975 156.948C227.174 176.42 215.908 193.016 201.307 207.435C195.673 212.995 189.997 218.54 183.366 222.892C179.862 225.192 175.999 226.957 172.231 228.843C171.154 229.379 169.874 229.481 168.682 229.798C166.61 230.349 164.815 229.869 163.436 228.245C161.396 225.833 159.21 223.503 157.519 220.859C154.202 215.673 151.29 210.226 148.01 205.022C142.714 196.623 138.849 187.559 135.539 178.269C130.077 162.929 126.903 147.101 126.088 130.821C125.728 123.594 125.977 116.397 127.052 109.241C127.973 103.11 129.686 97.221 132.427 91.6379C138.147 79.9819 147.606 74.5218 160.484 74.8731C166.165 75.0327 171.609 76.4453 176.922 78.4271C189.759 83.2098 200.27 91.2869 209.267 101.454C213.707 106.472 217.552 111.942 220.899 117.752C224.06 123.237 227.196 128.743 229.478 132.721ZM149.637 147.248C149.977 146.62 150.073 146.254 150.303 146.017C161.693 134.296 173.163 122.651 185.316 111.71C187.398 109.84 189.329 107.768 191.174 105.65C192.196 104.476 193.098 103.111 193.712 101.684C194.734 99.3114 193.654 96.3776 191.402 94.6917C189.652 93.3812 187.999 93.3908 185.597 95.1156C183.611 96.5483 181.752 98.1854 179.935 99.8372C170.956 107.983 161.941 116.093 153.082 124.375C148.726 128.449 144.723 132.901 140.487 137.112C137.372 140.206 136.885 143.889 138.117 147.84C139.636 152.707 141.374 157.511 143.116 162.305C143.53 163.443 144.191 164.54 144.952 165.481C146.694 167.647 149.423 167.698 151.368 165.655C153.464 163.449 154.167 160.771 153.471 157.845C152.986 155.801 152.219 153.815 151.498 151.833C150.917 150.209 150.206 148.63 149.637 147.248Z" fill="#F2CF6D"/>
<path d="M156.569 69.2248C155.142 69.4611 153.782 69.6909 152.434 69.9066C142.215 71.5482 134.647 77.0865 129.347 85.8298C125.933 91.4494 123.826 97.6017 122.439 104.014C120.719 111.974 120.203 120.056 120.491 128.17C121.15 146.959 124.885 165.131 131.367 182.812C135.945 195.309 142.426 206.768 149.351 218.027C152.557 223.241 155.264 228.814 160.095 233.198C159.005 233.98 158.366 234.559 157.632 234.944C150.456 238.746 142.981 241.789 135.055 243.659C134.537 243.779 134.034 243.91 133.523 244.044C127.724 245.638 122.711 244.325 118.672 239.838C114.439 235.135 110.053 230.534 106.179 225.549C95.5683 211.884 86.1403 197.446 79.312 181.47C73.9059 168.819 69.6219 155.779 66.9881 142.253C64.2927 128.418 65.6996 114.868 70.6266 101.754C76.6289 85.7613 87.8954 74.6774 103.3 67.6323C103.533 67.5275 103.888 67.6913 104.639 67.7945C104.047 68.634 103.643 69.3291 103.118 69.9054C99.0756 74.3319 95.4515 79.0689 92.3797 84.2281C86.4134 94.2203 82.8601 104.976 81.8009 116.572C80.5185 130.576 82.1243 144.322 85.3917 157.93C87.6984 167.542 90.9734 176.832 94.7559 185.945C97.3998 192.312 100.963 198.186 104.488 204.087C104.671 204.388 104.853 204.69 105.061 204.97C106.055 206.277 107.175 207.389 109.021 206.992C111.055 206.548 112.568 205.435 113.11 203.333C113.706 201.035 113.312 198.76 112.496 196.603C110.812 192.162 109.111 187.722 107.227 183.362C101.278 169.565 96.8044 155.34 94.2706 140.513C91.6994 125.464 93.9082 111.033 99.9532 97.1769C104.189 87.454 109.482 78.3148 116.971 70.6757C119.544 68.0505 122.478 65.7815 125.221 63.3218C126.466 62.2067 127.889 61.6886 129.559 61.7505C138.82 62.1038 147.653 64.211 156.061 68.1148C156.271 68.1987 156.321 68.6449 156.569 69.2248Z" fill="white"/>
<path d="M44.3069 124.682C43.2828 132.088 45.5591 138.103 48.7207 143.916C51.5946 149.194 55.2142 153.931 59.1886 158.414C60.6993 160.125 62.2494 161.808 63.6775 163.586C66.9745 167.699 69.6528 172.088 71.6561 177.091C74.7866 184.907 78.7824 192.371 82.4171 199.985C83.1524 201.525 83.9164 203.051 84.6485 204.548C83.6732 205.292 83.1268 204.591 82.6882 204.202C69.0424 192.217 56.4701 179.254 46.3929 164.05C42.3008 157.875 39.0105 151.256 36.525 144.27C35.1465 140.399 34.5134 136.439 35.4526 132.358C36.4765 127.943 39.1879 125.401 44.3069 124.682Z" fill="white"/>
<path d="M109.112 201.631C104.279 196.715 101.374 190.902 98.7904 184.948C92.6068 170.69 88.2199 155.899 86.3043 140.431C85.1364 130.972 84.9522 121.493 86.492 112.059C89.3731 94.3618 97.9005 79.7797 111.144 67.8619C112.178 66.9303 113.354 66.1425 114.515 65.3617C114.894 65.105 115.447 65.0923 116.193 64.896C115.416 66.5895 114.165 67.5477 113.165 68.7115C100.506 83.4407 92.1111 100.124 89.7066 119.63C88.64 128.291 89.3026 136.808 90.9988 145.299C93.9056 159.838 98.5594 173.815 104.542 187.373C106.168 191.06 107.49 194.888 108.844 198.69C109.154 199.595 109.031 200.649 109.112 201.631Z" fill="white"/>
<path d="M65.1829 99.5605C64.2232 103.11 63.2154 106.452 62.4352 109.843C61.6548 113.251 61.1021 116.708 60.3976 120.417C59.2595 120.175 58.271 119.93 57.2818 119.775C54.5169 119.343 51.7639 118.772 48.9793 118.571C44.6421 118.26 40.6586 119.542 37.0539 121.962C36.0542 122.637 35.0791 123.345 34.0648 124.063C33.8476 123.618 33.5616 123.306 33.5711 123.017C33.9298 113.379 39.9391 105.052 48.9319 101.685C54.0717 99.7569 59.3626 98.9361 65.1829 99.5605Z" fill="white"/>
<path d="M102.67 61.6293C99.9075 63.0691 97.0706 64.4298 94.3568 65.9876C91.6429 67.5455 89.038 69.2898 86.5378 70.8675C83.5047 68.0013 80.8847 65.1638 77.9045 62.7865C74.7934 60.3046 70.9329 59.6626 66.373 59.984C67.106 58.8356 67.3394 58.1888 67.7917 57.7901C71.0003 55.0139 74.5679 52.7722 78.5217 51.2115C87.7198 47.5745 98.5664 52.1677 102.67 61.6293Z" fill="white"/>
<path d="M71.4915 87.4038C70.2 89.7307 68.941 92.0152 67.6784 94.2925C64.1062 94.1132 60.8046 93.9435 57.2289 93.757C57.0594 92.7215 56.7542 91.7346 56.7554 90.7398C56.7293 84.9207 57.1875 79.131 58.571 73.4748C60.0394 67.4663 65.0331 64.6959 71.3775 66.1382C67.9894 76.7247 67.9881 77.7373 71.4915 87.4038Z" fill="white"/>
<path d="M149.637 147.248C150.206 148.63 150.917 150.209 151.505 151.829C152.226 153.811 152.99 155.79 153.479 157.841C154.174 160.768 153.471 163.446 151.375 165.651C149.43 167.694 146.694 167.647 144.96 165.478C144.205 164.533 143.534 163.432 143.123 162.302C141.388 157.504 139.651 152.7 138.124 147.837C136.888 143.896 137.375 140.214 140.494 137.109C144.73 132.898 148.733 128.446 153.089 124.372C161.948 116.089 170.967 107.987 179.943 99.8338C181.759 98.182 183.611 96.5484 185.605 95.1122C188.006 93.3874 189.66 93.3778 191.409 94.6883C193.661 96.3742 194.748 99.3045 193.72 101.68C193.105 103.108 192.207 104.479 191.182 105.646C189.332 107.758 187.409 109.826 185.323 111.707C173.163 122.651 161.696 134.285 150.31 146.014C150.073 146.254 149.967 146.616 149.637 147.248ZM188.263 98.0463C186.092 99.9158 183.943 101.686 181.882 103.563C175.401 109.493 168.969 115.47 162.499 121.404C158.363 125.202 154.127 128.906 150.051 132.773C148.039 134.679 145.883 136.524 144.424 139.27C145.475 140.46 146.485 141.6 147.689 142.955C148.695 141.948 149.535 141.111 150.373 140.267C158.454 132.205 166.506 124.122 174.636 116.107C178.136 112.656 181.843 109.414 185.357 105.974C186.848 104.508 188.173 102.848 189.42 101.155C190.076 100.267 190.156 99.1799 188.263 98.0463ZM142.859 143.994C142.48 144.108 142.109 144.219 141.734 144.34C141.965 145.629 142.032 146.981 142.468 148.198C144.093 152.773 145.826 157.314 147.562 161.844C147.632 162.023 148.113 162.045 148.511 162.17C149.982 161.025 149.785 159.408 149.345 157.945C147.858 152.983 145.659 148.341 142.859 143.994Z" fill="black"/>
<path d="M188.263 98.0463C190.153 99.1727 190.076 100.267 189.42 101.155C188.169 102.841 186.855 104.505 185.357 105.974C181.843 109.414 178.136 112.656 174.636 116.107C166.506 124.122 158.457 132.212 150.373 140.267C149.532 141.104 148.695 141.948 147.689 142.955C146.485 141.6 145.475 140.46 144.424 139.27C145.886 136.513 148.039 134.679 150.051 132.773C154.127 128.906 158.355 125.205 162.499 121.404C168.969 115.47 175.401 109.493 181.882 103.564C183.935 101.689 186.095 99.923 188.263 98.0463Z" fill="white"/>
<path d="M142.859 143.994C145.655 148.334 147.858 152.983 149.348 157.953C149.785 159.408 149.985 161.032 148.515 162.177C148.113 162.045 147.632 162.023 147.566 161.851C145.837 157.317 144.097 152.78 142.471 148.205C142.036 146.989 141.976 145.633 141.737 144.347C142.112 144.226 142.48 144.108 142.859 143.994Z" fill="white"/>
</g>
<defs>
<clipPath id="clip0_0_421">
<rect width="190" height="212" fill="white" transform="translate(0 83.4673) rotate(-26.0593)"/>
</clipPath>
</defs>
</svg>
