<svg width="456" height="309" viewBox="0 0 456 309" fill="none" xmlns="http://www.w3.org/2000/svg">
<path d="M11.6845 170.189C14.2441 205.196 53.1312 230.527 86.5483 220.81C98.4572 217.941 108.232 211.598 120.218 208.107C120.587 208.01 120.975 208.01 121.324 208.203C121.926 208.572 122.119 209.347 121.77 209.949C118.298 215.709 113.275 219.8 107.766 223.021C121.691 260.976 157.746 284.891 207.378 264.759C205.012 259.95 203.537 254.17 205.187 248.816C205.671 247.245 208.038 247.031 208.717 248.583C212.945 256.922 217.735 264.099 224.098 270.887C245.47 292.338 277.861 301.666 307.497 296.043C334.223 290.941 363.704 276.163 370.51 247.69C370.49 246.934 370.704 246.198 371.034 245.537C372.216 239.874 372.895 233.958 373.593 228.197C373.709 227.246 374.331 226.373 375.3 226.006C381.08 224.125 381.119 239.622 380.789 242.958C407.05 242.764 416.107 227.014 412.404 206.805C401.252 205.952 389.556 197.553 388.607 185.839C388.548 185.237 388.82 184.636 389.344 184.268C390.276 183.628 391.419 184.054 391.923 184.985C397.335 193.403 406.761 197.456 416.73 197.146C426.04 196.836 436.571 194.237 441.731 186.188C451.565 170.458 438.124 149.725 420.958 146.912C420.958 146.932 420.939 146.952 420.939 146.971C420.144 149.201 414.035 160.781 412.25 154.148C412.521 147.903 413.376 142.123 414.054 136.052C415.567 124.687 413.764 112.915 407.596 103.216C398.441 88.9416 381.587 79.4373 364.559 79.9805C354.26 80.3101 342.894 83.4325 335.718 90.9776C336.824 94.0233 339.209 106.454 334.806 107.192C333.505 107.327 332.362 106.415 332.207 105.117C331.567 96.0593 326.776 92.3154 326.776 92.3154C322.024 88.2238 315.818 88.436 310.62 92.2762C306.741 95.1654 300.787 91.3839 301.951 86.5941C301.951 86.5941 301.951 86.5158 301.971 86.3804C306.121 60.0028 295.92 30.9496 270.125 19.933C253.852 12.6407 234.166 10.4874 216.575 12.9898C189.538 16.5397 171.888 39.0184 168.495 65.1432C169.543 65.5886 170.57 66.1123 171.559 66.6555C177.708 70.0684 182.75 75.3051 185.814 81.5696C187.191 84.4212 188.238 87.2908 188.626 90.4915C188.705 91.0152 188.491 91.5584 188.044 91.888C187.326 92.4116 186.318 92.1588 185.871 91.423C184.63 89.5811 183.311 87.8732 181.915 86.3022C168.939 71.4257 150.03 67.9737 131.274 76.4111C115.544 83.4129 108.892 98.7544 111.782 115.298C112.228 118.536 112.945 121.796 113.781 125.112C113.781 125.132 113.781 125.152 113.781 125.152C114.208 126.819 114.653 128.488 115.099 130.194C113.916 137.428 105.285 119.333 104.994 117.257C104.994 117.257 104.975 117.238 104.955 117.238C73.148 88.1064 28.2282 109.499 15.1756 144.798C14.0891 147.687 13.2359 150.674 12.6159 153.74C12.6159 153.798 12.5964 153.856 12.5964 153.914C12.5182 154.205 12.4805 154.497 12.4218 154.768C11.5099 159.754 11.2195 164.914 11.6845 170.189Z" fill="#FBFBFB"/>
<path d="M8.46555 131.923C24.7385 98.273 70.5295 80.6037 102.803 102.772C103.152 74.5138 133.156 57.6013 158.991 62.3535C165.371 16.9115 201.563 -4.4235 245.259 1.80186C287.928 6.22446 315.953 34.9676 313.976 78.7422C319.407 77.4812 325.263 78.509 330.035 81.2447C371.133 49.34 432.228 85.6282 423.655 137.238C465.625 145.074 468.398 204.209 422.258 206.865C426.409 233.01 411.222 253.317 378.911 252.676C372.123 278.297 348.519 295.15 324.412 302.696C285.738 316.466 239.035 305.218 212.852 273.021C158.992 295.519 116.208 272.478 98.9461 227.191C76.9911 236.481 51.2154 235.24 31.2768 221.236C0.551788 202.017 -8.52512 163.518 8.46555 131.923ZM11.6843 170.189C14.244 205.197 53.131 230.527 86.5481 220.81C98.4571 217.941 108.232 211.598 120.218 208.107C120.587 208.011 120.975 208.011 121.324 208.203C121.926 208.572 122.119 209.347 121.769 209.949C118.298 215.709 113.275 219.801 107.766 223.021C121.691 260.976 157.746 284.891 207.377 264.76C205.012 259.95 203.537 254.17 205.186 248.816C205.671 247.245 208.038 247.032 208.717 248.583C212.945 256.923 217.735 264.099 224.097 270.887C245.47 292.338 277.861 301.666 307.496 296.043C334.223 290.942 363.704 276.163 370.51 247.691C370.49 246.934 370.704 246.198 371.033 245.537C372.216 239.875 372.895 233.958 373.593 228.197C373.709 227.246 374.33 226.374 375.3 226.006C381.079 224.125 381.119 239.622 380.789 242.958C407.049 242.764 416.107 227.015 412.403 206.805C401.251 205.952 389.556 197.554 388.606 185.839C388.548 185.237 388.82 184.637 389.344 184.268C390.275 183.628 391.419 184.054 391.923 184.986C397.334 193.403 406.76 197.456 416.73 197.146C426.04 196.836 436.57 194.237 441.73 186.188C451.564 170.458 438.123 149.725 420.958 146.913C420.958 146.932 420.939 146.952 420.939 146.971C420.144 149.201 414.035 160.781 412.25 154.148C412.521 147.903 413.375 142.123 414.054 136.053C415.566 124.687 413.764 112.915 407.596 103.216C398.44 88.9418 381.587 79.4375 364.558 79.9807C354.259 80.3102 342.894 83.4327 335.717 90.9778C336.823 94.0235 339.208 106.455 334.805 107.192C333.505 107.327 332.362 106.415 332.207 105.117C331.567 96.0595 326.776 92.3156 326.776 92.3156C322.024 88.224 315.818 88.4362 310.62 92.2764C306.741 95.1656 300.786 91.3841 301.951 86.5943C306.18 60.1595 295.997 30.9889 270.125 19.9332C253.852 12.6409 234.166 10.4876 216.575 12.99C189.538 16.5399 171.888 39.0186 168.495 65.1434C176.02 68.4013 182.246 74.2986 185.815 81.5713C187.192 84.4229 188.239 87.2925 188.628 90.4932C188.706 91.0169 188.492 91.5601 188.045 91.8897C187.328 92.4134 186.319 92.1605 185.872 91.4247C172.955 72.3017 152.028 67.0846 131.275 76.4128C115.546 83.4146 108.893 98.7561 111.784 115.3C112.462 120.187 113.743 125.095 115.1 130.196C113.917 137.429 105.286 119.334 104.995 117.259C66.0678 81.5743 7.43777 121.585 11.6843 170.189Z" fill="#2D3963"/>
<path opacity="0.29" d="M11.6846 170.189C14.2443 205.196 53.1313 230.527 86.5484 220.81C98.4574 217.941 108.233 211.598 120.218 208.107C120.587 208.01 120.975 208.01 121.324 208.203C121.926 208.572 122.119 209.347 121.77 209.949C118.298 215.709 113.275 219.801 107.766 223.021C121.691 260.976 157.746 284.891 207.378 264.759C205.012 259.95 203.538 254.17 205.187 248.816C205.671 247.245 208.038 247.031 208.717 248.583C212.946 256.922 217.735 264.099 224.098 270.887C245.47 292.338 277.861 301.666 307.497 296.043C334.223 290.941 363.704 276.163 370.51 247.69C370.491 246.934 370.704 246.198 371.034 245.537C372.217 239.875 372.895 233.958 373.593 228.197C373.709 227.246 374.331 226.373 375.3 226.006C381.08 224.125 381.119 239.622 380.789 242.958C407.05 242.764 416.107 227.015 412.404 206.805C401.252 205.952 389.556 197.554 388.607 185.839C388.548 185.237 388.82 184.636 389.344 184.268C390.276 183.628 391.419 184.054 391.923 184.985C397.335 193.403 406.761 197.456 416.73 197.146C424.875 196.875 433.952 194.857 439.558 188.961C439.558 188.942 439.558 188.942 439.558 188.942C439.558 188.942 398.207 196.332 388.918 161.614C388.918 161.614 388.026 187.157 351.855 191.715C351.855 191.715 360.834 215.881 339.191 232.773C317.565 249.647 259.128 245.477 248.325 205.815C248.325 205.815 217.002 229.166 184.127 199.066C184.127 199.066 177.3 211.207 159.844 210.432C142.389 209.675 134.533 196.273 134.282 183.375C134.282 183.375 90.5226 209.429 58.1408 177.3C58.1408 177.3 22.2182 196.02 11.5898 161.479C11.3942 164.352 11.4333 167.241 11.6846 170.189Z" fill="#B3D6F2"/>
<path d="M335.716 90.9806C335.871 91.408 336.046 92.0084 336.24 92.7458C342.485 86.4421 365.991 77.1335 390.041 91.1552C414.673 105.546 413.373 140.031 413.218 143.134C413.489 140.786 413.78 138.441 414.051 136.055C415.564 124.69 413.761 112.918 407.593 103.219C398.438 88.9446 381.584 79.4403 364.555 79.9836C354.258 80.3131 342.892 83.4356 335.716 90.9806Z" fill="white"/>
<path d="M168.493 65.1464C169.541 65.5918 170.568 66.1155 171.557 66.6587C172.857 54.1884 191.01 8.84277 247.625 19.4516C304.879 30.1778 302.241 82.5434 301.969 86.3836C306.119 60.006 295.918 30.9528 270.123 19.9362C253.85 12.6439 234.164 10.4905 216.573 12.993C189.536 16.5428 171.887 39.0215 168.493 65.1464Z" fill="white"/>
<path d="M111.782 115.301C112.228 118.54 112.946 121.799 113.781 125.116C112.637 119.297 108.485 93.8895 133.525 80.5073C157.634 67.6293 180.248 84.9871 181.915 86.3068C168.939 71.4304 150.03 67.9784 131.274 76.4158C115.544 83.4161 108.893 98.7576 111.782 115.301Z" fill="white"/>
<path d="M15.1758 144.801C19.5397 135.22 30.9446 121.269 51.1827 112.287C78.2931 100.256 103.676 116.406 104.955 117.241C73.1483 88.1095 28.2285 109.503 15.1758 144.801Z" fill="white"/>
</svg>
