<svg width="86" height="56" viewBox="0 0 86 56" fill="none" xmlns="http://www.w3.org/2000/svg">
<path d="M72.7851 55.436L85.8237 6.05914C85.8237 6.05914 83.4255 5.87419 79.6541 5.88475L70.1238 54.8852C71.027 55.0603 71.9157 55.2434 72.7851 55.436Z" fill="#F2CF6D"/>
<path d="M15.7978 55.3891L6.16956 5.88477C2.39814 5.87421 0 6.05916 0 6.05916L13.1874 56C14.039 55.7877 14.9091 55.5839 15.7978 55.3891Z" fill="#F2CF6D"/>
<path d="M51.5581 3.38219C53.2976 4.36337 54.7106 5.5652 55.6426 6.93265C66.094 9.19936 69.8287 33.93 52.5163 44.1484C52.5163 44.1484 53.0664 42.8662 52.919 41.096C52.7606 41.2737 52.5993 41.4517 52.4351 41.6305C50.5729 43.6562 50.5492 45.7274 50.7593 47.8412C50.9654 49.9114 51.7263 51.3786 52.6193 52.7795C58.1638 53.0857 63.4217 53.6871 68.2508 54.5376L76.3048 0.162697C76.3048 0.162697 74.582 -3.8147e-06 71.8431 -3.8147e-06C66.97 -3.8147e-06 58.8807 0.515491 51.5581 3.38219ZM66.386 9.91367L65.979 8.81017C65.6499 7.9171 64.9457 7.21334 64.0527 6.88385L62.9495 6.47681C62.908 6.46151 62.8804 6.42184 62.8804 6.37779C62.8804 6.33374 62.908 6.29406 62.9495 6.27877L64.0527 5.87208C64.9457 5.54259 65.6499 4.83848 65.979 3.94541L66.386 2.84266C66.4017 2.8008 66.441 2.77347 66.485 2.77347C66.5294 2.77347 66.5688 2.8008 66.5841 2.84266L66.9911 3.94541C67.3202 4.83848 68.0243 5.54259 68.9174 5.87208L70.0205 6.27877C70.062 6.29406 70.0897 6.33374 70.0897 6.37779C70.0897 6.42184 70.062 6.46151 70.0205 6.47681L68.9174 6.8835C68.0243 7.21335 67.3202 7.9171 66.9911 8.81017L66.5841 9.91367C66.5688 9.95517 66.5294 9.98246 66.485 9.98246C66.441 9.98246 66.4017 9.95517 66.386 9.91367ZM68.7379 17.9768L68.4496 17.1944C68.2158 16.5616 67.7171 16.0629 67.0839 15.8295L66.3019 15.5407C66.2728 15.5298 66.2531 15.5022 66.2531 15.4709C66.2531 15.4396 66.2728 15.4115 66.3023 15.4006L67.0839 15.1122C67.7171 14.8789 68.2162 14.3797 68.4496 13.747L68.7379 12.965C68.7485 12.9358 68.7765 12.9162 68.8078 12.9162C68.8395 12.9162 68.8672 12.9358 68.8781 12.965L69.1664 13.747C69.3998 14.3797 69.8986 14.8785 70.5317 15.1122L71.3137 15.4006C71.3428 15.4115 71.3629 15.4392 71.3629 15.4709C71.3629 15.5018 71.3428 15.5298 71.3137 15.5407L70.5317 15.8291C69.8986 16.0628 69.3998 16.562 69.1664 17.1948L68.8781 17.9768C68.8672 18.0059 68.8395 18.0256 68.8078 18.0256C68.7765 18.0256 68.7485 18.0059 68.7379 17.9768Z" fill="#694FDB"/>
<path d="M9.51898 0.162762L17.6418 55.0029C22.9197 53.9475 28.7744 53.1975 35.0037 52.8221C35.2003 52.4173 35.3965 52.0124 35.6015 51.5992C36.2408 50.3104 36.1734 48.8906 36.2026 47.5249C36.2178 46.6035 35.9437 45.5159 35.0182 45.1082C34.3134 44.5927 30.8165 44.9345 27.8376 44.2599C26.5758 43.9745 25.7027 43.3585 25.45 42.145C25.355 41.6889 25.4839 40.6956 25.6084 40.258C25.7959 39.5976 25.6434 38.876 25.173 38.3761C24.8744 38.059 24.5078 37.7914 24.1492 37.5326C23.8438 37.3123 23.6756 36.9461 23.7109 36.5704C23.7455 36.2052 23.8219 35.8451 23.9279 35.492C23.42 35.1388 22.8615 34.7081 22.7708 34.0528C22.5815 33.0967 23.4469 32.2972 23.2733 31.3546C23.0952 30.5934 22.2491 30.3633 21.8301 29.7764C21.2872 29.1964 21.0885 28.1421 21.8068 27.6146C22.927 26.6971 24.7175 26.3203 25.1566 24.8119C25.299 24.3219 25.3124 23.7907 25.2109 23.2857C25.0139 22.3122 23.5387 19.1553 24.1984 15.0872C24.2872 14.5356 24.4368 13.7459 24.7627 12.8325C23.6457 13.1853 22.4985 13.8042 21.4715 14.8443C21.4715 14.8443 21.3823 7.30698 28.4591 5.96756C28.4591 5.96756 27.2999 5.34934 25.2221 5.31839C26.9963 3.99317 28.9193 2.98253 30.9082 2.238C24.5712 0.371769 18.1154 6.10352e-05 13.9789 6.10352e-05C11.241 6.10352e-05 9.51898 0.162762 9.51898 0.162762ZM18.54 23.2948L18.2513 22.5128C18.0182 21.88 17.5191 21.3812 16.886 21.1479L16.1043 20.8592C16.0752 20.8483 16.0555 20.8206 16.0555 20.7889C16.0555 20.758 16.0752 20.7299 16.1047 20.719L16.8864 20.4307C17.5195 20.1973 18.0182 19.6982 18.2513 19.065L18.54 18.2837C18.5509 18.2543 18.5789 18.2346 18.6102 18.2346C18.6415 18.2346 18.6696 18.2543 18.6805 18.2834L18.9688 19.065C19.2018 19.6978 19.701 20.1969 20.3341 20.4307L21.1158 20.719C21.1453 20.7299 21.1649 20.7576 21.1649 20.7889C21.1649 20.8206 21.1453 20.8483 21.1158 20.8592L20.3341 21.1475C19.701 21.3813 19.2018 21.88 18.9688 22.5131L18.6805 23.2948C18.6696 23.3243 18.6415 23.344 18.6102 23.344C18.5789 23.344 18.5509 23.3243 18.54 23.2948Z" fill="#694FDB"/>
<path d="M29.4862 8.20077L30.5118 7.82249C31.3419 7.51667 31.9961 6.86207 32.3019 6.03199L32.6802 5.00676C32.6944 4.96817 32.7312 4.94269 32.7723 4.94269C32.8134 4.94269 32.8502 4.96817 32.8644 5.00676L33.2427 6.03199C33.5485 6.86207 34.2031 7.51631 35.0332 7.82249L36.0588 8.20077C36.097 8.21496 36.1229 8.25174 36.1229 8.29288C36.1229 8.33365 36.097 8.37042 36.0588 8.38462L35.0332 8.76289C34.2031 9.06908 33.5485 9.72368 33.2427 10.5538L32.8644 11.579C32.8502 11.6176 32.8134 11.6431 32.7723 11.6431C32.7312 11.6431 32.6944 11.6176 32.6802 11.579L32.3019 10.5538C31.9957 9.72331 31.3415 9.06908 30.5114 8.76326L29.4862 8.38499C29.4476 8.37079 29.4221 8.33402 29.4221 8.29288C29.4221 8.25174 29.4476 8.21496 29.4862 8.20077Z" fill="#694FDB"/>
<path d="M55.6921 22.4319L56.4006 22.1705C56.974 21.9594 57.4262 21.5072 57.6374 20.9338L57.8988 20.2253C57.9086 20.1987 57.9341 20.1812 57.9625 20.1812C57.9909 20.1812 58.016 20.1987 58.0258 20.2253L58.2872 20.9334C58.4988 21.5072 58.9509 21.959 59.5243 22.1705L60.2328 22.4319C60.2594 22.4418 60.2769 22.4669 60.2769 22.4953C60.2769 22.5237 60.2594 22.5492 60.2328 22.559L59.5243 22.8204C58.9509 23.0319 58.4988 23.4841 58.2872 24.0575L58.0258 24.7656C58.016 24.7922 57.9909 24.8101 57.9625 24.8101C57.9341 24.8101 57.9086 24.7922 57.8988 24.7656L57.6374 24.0575C57.4258 23.4837 56.974 23.0319 56.4002 22.8204L55.6921 22.559C55.6655 22.5495 55.6477 22.5241 55.6477 22.4957C55.6477 22.4673 55.6655 22.4418 55.6921 22.4319Z" fill="#694FDB"/>
<path d="M37.2458 18.66C36.7463 15.869 38.2299 13.0089 40.9565 11.8773C42.0174 11.4372 43.1303 11.3159 44.1902 11.4678C40.8065 12.6306 38.2612 15.3524 37.2458 18.66ZM50.3211 14.5281C50.063 13.9318 49.7426 13.381 49.3622 12.8869C51.1072 12.4839 52.2514 12.4063 52.385 12.7551C52.511 13.0828 51.7181 13.7297 50.3211 14.5281ZM33.2451 20.1068C33.1111 19.7584 34.0129 19.0499 35.5791 18.1812C35.6272 18.8031 35.7579 19.4267 35.9654 20.0424C34.393 20.3846 33.3707 20.4349 33.2451 20.1068ZM48.7877 12.2192C46.703 10.0752 43.4649 9.25493 40.4966 10.3948C37.5284 11.5351 35.672 14.3123 35.5591 17.3006C31.6096 19.4697 29.2046 21.6399 29.6844 22.8887C30.3896 24.7244 37.0518 23.8728 44.5651 20.9868C52.0785 18.1012 57.5978 14.2733 56.8926 12.4376C56.4128 11.1892 53.1733 11.1867 48.7877 12.2192Z" fill="#694FDB"/>
<path d="M45.0872 22.3458C43.1179 23.102 41.1731 23.7308 39.3491 24.2146C41.303 25.3676 43.7401 25.6578 46.0225 24.7808C48.3034 23.9048 49.9192 22.0597 50.5992 19.8971C48.9172 20.7599 47.051 21.5915 45.0872 22.3458Z" fill="#694FDB"/>
</svg>
