<svg width="234" height="213" viewBox="0 0 234 213" fill="none" xmlns="http://www.w3.org/2000/svg">
<path d="M309.377 144.977C304.964 162.455 289.441 168.232 272.271 167.396C263.272 167.023 255.3 163.789 246.522 161.811C241.958 162.421 252.767 169.273 254.132 169.431C235.854 206.714 163.639 220.552 127.339 190.345C133.467 186.705 139.023 182.081 142.898 176.123C143.155 175.705 143.143 175.139 142.816 174.733C142.361 174.179 141.521 174.1 140.972 174.564C134.016 179.753 126.779 184.739 118.771 188.187C106.784 193.478 93.3377 193.624 80.9417 189.927C69.9234 186.886 59.1847 180.872 52.8942 171.387C55.52 170.675 65.5004 166.843 65.5698 164.174C65.4415 163.507 64.7759 163.066 64.0756 163.19C61.3562 163.699 58.7651 164.343 56.2088 164.954C48.8908 166.695 41.2218 168.493 33.7871 166.515C19.6056 163.214 15.1122 146.663 19.8506 134.566C19.8506 134.566 19.8506 134.566 19.8622 134.555C20.1892 133.684 20.5857 132.825 21.0294 131.999C26.1065 122.062 38.3162 117.348 49.2989 117.891C49.2989 117.891 50.525 117.947 51.178 118.004C53.5125 118.174 55.929 118.547 58.2162 119.055C58.9513 119.202 59.6632 119.372 60.3636 119.552C61.1459 119.756 62.0093 119.439 62.453 118.738C64.0167 116.036 58.4149 114.352 55.0184 113.515C55.0184 113.515 55.0184 113.515 55.0184 113.504C54.2129 113.3 53.5241 113.154 53.0929 113.041C52.1823 101.985 59.7577 91.7985 69.6909 86.9596C79.8343 81.205 92.3228 79.4419 103.423 83.6361C103.715 83.794 104.053 83.9183 104.38 83.9641C108.605 85.4786 112.725 87.5818 116.507 90.0233C117.628 90.7352 118.713 91.493 119.764 92.2619C120.418 92.7478 121.363 92.7366 122.005 92.2049C124.584 90.2036 117.674 85.0489 112.725 82.0076C110.835 80.8434 109.235 79.995 108.547 79.7465C118.375 56.3451 142.862 42.5861 168.646 44.5426C189.516 45.5825 210.304 57.5551 219.046 76.253C220.657 79.7913 221.882 83.3297 222.699 87.1287C222.886 87.9425 223.038 88.7675 223.177 89.6159C223.329 90.8819 225.395 91.0408 225.722 89.7626C227.146 85.0031 226.528 79.8708 224.823 75.2243C224.555 74.5123 224.263 73.8116 223.96 73.1211C233.846 71.572 261.544 70.035 273.542 98.0146C273.671 98.3202 273.799 98.6248 273.927 98.9303C273.648 98.9751 273.285 99.0545 272.854 99.1676C272.375 99.2919 271.815 99.4498 271.22 99.6423C268.15 100.615 264.042 102.412 264.123 104.278C264.274 104.978 264.986 105.43 265.71 105.284C267.438 104.933 269.189 104.617 270.928 104.379C272.959 104.085 275.002 103.882 277.044 103.814C277.044 103.814 278.246 103.723 278.76 103.792C293.724 103.384 305.711 114.599 309.435 127.917C309.435 127.928 309.446 127.951 309.446 127.962C310.988 133.503 311.081 139.404 309.377 144.977Z" fill="#FBFBFB"/>
<path d="M315.527 125.793C311.139 110.599 296.607 98.299 279.951 98.3774C266.446 62.4728 230.519 66.2484 221.181 67.8985C204.7 40.9017 167.14 31.0893 137.819 42.8919C84.8051 8.5354 16.698 55.6559 31.2413 115.584C9.4148 123.374 4.30208 155.955 23.8297 168.786C30.5641 173.15 38.9798 173.874 46.8003 172.697C53.2664 184.692 65.9537 192.481 79.1088 196.065C93.1032 200.259 108.639 199.683 121.817 193.216C161.782 229.076 242.121 211.146 259.746 171.262C274.662 175.084 292.485 174.688 304.776 164.649C315.854 155.243 319.427 139.269 315.527 125.793ZM62.1385 48.6128C92.1588 27.5856 120.779 39.6703 131.599 45.764C118.537 52.6146 108.43 64.2592 103.072 77.5875C79.3779 69.4822 45.634 85.8966 47.1157 112.419C43.6256 112.35 40.1239 112.803 36.7514 113.685C34.523 103.997 29.9235 71.1668 62.1385 48.6128ZM309.377 144.977C304.964 162.455 289.441 168.232 272.271 167.396C263.272 167.023 255.3 163.789 246.522 161.811C241.958 162.422 252.766 169.273 254.132 169.431C235.854 206.715 163.639 220.552 127.339 190.345C133.467 186.705 139.023 182.081 142.898 176.124C143.155 175.705 143.143 175.14 142.816 174.733C142.361 174.179 141.521 174.1 140.972 174.564C134.015 179.753 126.779 184.739 118.771 188.187C106.784 193.478 93.3376 193.625 80.9417 189.927C69.9233 186.886 59.1846 180.872 52.8941 171.387C55.5199 170.675 65.5003 166.843 65.5697 164.174C65.4414 163.507 64.7758 163.066 64.0755 163.19C61.3561 163.7 58.765 164.343 56.2087 164.955C48.8907 166.695 41.2217 168.493 33.787 166.515C18.5666 162.977 14.5044 144.176 21.0293 132C26.1064 122.063 38.3161 117.349 49.2988 117.892C49.2988 117.892 50.5249 117.948 51.1779 118.005C54.2475 118.231 57.4695 118.808 60.3635 119.554C61.1458 119.758 62.0092 119.441 62.4529 118.74C64.3909 115.394 55.3443 113.608 53.0918 113.043C52.1812 101.987 59.7567 91.8007 69.6898 86.9617C79.8333 81.2071 92.3218 79.4441 103.422 83.6383C103.713 83.7962 104.052 83.9205 104.379 83.9662C109.854 85.933 115.141 88.8612 119.763 92.2641C120.417 92.7499 121.362 92.7387 122.003 92.2071C125.563 89.4377 111.031 80.6643 108.545 79.7487C118.373 56.3473 142.861 42.5882 168.645 44.5447C189.514 45.5846 210.303 57.5572 219.045 76.2552C221.006 80.5624 222.395 84.8585 223.176 89.618C223.328 90.8841 225.394 91.0429 225.721 89.7647C227.367 84.2708 226.282 78.2901 223.959 73.1233C233.95 71.5629 262.138 70.0035 273.927 98.9334C271.756 99.3062 264.006 101.726 264.122 104.281C264.274 104.981 264.986 105.434 265.71 105.287C269.469 104.518 273.262 103.953 277.044 103.817C277.044 103.817 278.246 103.727 278.76 103.795C299.969 103.216 315.201 125.985 309.377 144.977Z" fill="#2D3963"/>
<path d="M131.599 45.7638C118.538 52.6144 108.43 64.259 103.072 77.5873C79.378 69.482 45.6341 85.8964 47.1158 112.418C43.6256 112.35 40.1239 112.802 36.7515 113.684C36.1331 111.039 35.3623 106.675 35.1993 101.26C34.7556 86.8457 38.7126 65.0158 62.1385 48.6117C88.6455 30.0483 114.056 37.295 127.094 43.4448C128.822 44.2605 130.328 45.0519 131.599 45.7638Z" fill="#F2CF6D"/>
<path d="M143.911 10.7965C142.495 10.0556 140.724 10.5676 139.958 11.942L130.595 28.7526C129.83 30.127 130.359 31.8415 131.778 32.5815C132.218 32.8113 132.693 32.9207 133.161 32.9207C134.198 32.9207 135.203 32.3825 135.732 31.436L145.095 14.6254C145.86 13.2519 145.33 11.5374 143.911 10.7965Z" fill="#2D3963"/>
<path d="M113.267 0.475069C111.679 0.203178 110.166 1.22161 109.88 2.75859L106.465 21.1902C106.181 22.7263 107.235 24.1951 108.822 24.4716C108.997 24.5015 109.17 24.5165 109.341 24.5165C110.728 24.5165 111.956 23.5569 112.21 22.189L115.625 3.75739C115.909 2.21948 114.854 0.750699 113.267 0.475069Z" fill="#2D3963"/>
<path d="M81.1924 2.82657C80.9474 1.28305 79.4512 0.22351 77.8644 0.463634C76.2707 0.70189 75.1787 2.14544 75.4247 3.68709L78.3602 22.1197C78.5821 23.5165 79.8246 24.5163 81.2407 24.5163C81.3892 24.5163 81.5378 24.505 81.6883 24.4826C83.2819 24.2444 84.3739 22.8008 84.1279 21.2592L81.1924 2.82657Z" fill="#2D3963"/>
<path d="M52.565 10.7666C51.7547 9.41559 49.9682 8.95964 48.5771 9.74261C47.1832 10.5275 46.7105 12.2569 47.5208 13.6061L57.0276 29.4524C57.5687 30.3559 58.5469 30.8595 59.5521 30.8595C60.0499 30.8595 60.5544 30.7362 61.0155 30.4765C62.4094 29.6916 62.8821 27.9622 62.0718 26.613L52.565 10.7666Z" fill="#2D3963"/>
<path d="M27.754 26.3765C26.6687 25.2235 24.8224 25.1413 23.631 26.1934C22.4406 27.2455 22.3567 29.0328 23.4429 30.1858L35.5832 43.0731C36.1591 43.6842 36.9472 43.9944 37.7402 43.9944C38.4424 43.9944 39.1466 43.7505 39.7061 43.2562C40.8965 42.2042 40.9805 40.4168 39.8943 39.2638L27.754 26.3765Z" fill="#2D3963"/>
<path d="M23.4255 57.9606L8.7935 51.0961C7.33879 50.414 5.59757 51.0026 4.8953 52.4079C4.19302 53.8131 4.7998 55.5033 6.24969 56.1835L20.8817 63.0481C21.2917 63.2406 21.7248 63.3312 22.1512 63.3312C23.2355 63.3312 24.2763 62.7444 24.7799 61.7363C25.4822 60.332 24.8754 58.6418 23.4255 57.9606Z" fill="#2D3963"/>
<path d="M19.2977 79.8506L3.20331 78.3239C1.59135 78.18 0.171371 79.3087 0.0141311 80.8615C-0.143109 82.4153 1.02992 83.7972 2.63319 83.9505L18.7276 85.4771C18.8241 85.4856 18.9215 85.4902 19.0161 85.4902C20.4997 85.4902 21.7692 84.3999 21.9168 82.9395C22.075 81.3857 20.902 80.0029 19.2977 79.8506Z" fill="#2D3963"/>
<path d="M18.5424 102.723L3.0789 103.519C1.46985 103.602 0.235076 104.933 0.320931 106.491C0.402927 107.998 1.69075 109.167 3.23228 109.167C3.28437 109.167 3.33743 109.166 3.38952 109.163L18.8531 108.367C20.4621 108.284 21.6969 106.954 21.611 105.395C21.5271 103.836 20.1467 102.632 18.5424 102.723Z" fill="#2D3963"/>
<path opacity="0.29" d="M309.377 144.978C304.964 162.455 289.441 168.232 272.271 167.396C263.272 167.023 255.3 163.79 246.522 161.812C241.958 162.422 252.767 169.273 254.132 169.431C235.854 206.715 163.639 220.552 127.339 190.345C133.467 186.705 139.023 182.081 142.898 176.124C143.155 175.705 143.143 175.14 142.816 174.733C142.361 174.179 141.521 174.1 140.972 174.564C134.016 179.754 126.779 184.739 118.771 188.187C106.784 193.478 93.3376 193.625 80.9417 189.928C69.9233 186.886 59.1847 180.872 52.8941 171.388C55.5199 170.676 65.5004 166.843 65.5698 164.174C65.4415 163.507 64.7759 163.066 64.0755 163.191C61.3562 163.7 58.7651 164.344 56.2087 164.955C48.8908 166.695 41.2217 168.493 33.7871 166.515C23.3755 164.096 18.1817 154.531 18.0293 144.832C18.1113 145.137 20.8423 155.854 36.3666 154.328C52.1243 152.779 56.011 143.272 56.011 143.272C56.011 143.272 61.4854 156.839 79.6471 154.476C79.6471 154.476 75.3399 167.68 91.1787 173.57C107.006 179.471 131.063 170.925 136.7 152.045C136.7 152.045 145.979 164.142 163.651 156.771C163.651 156.771 163.184 178.589 194.85 182.863C226.505 187.137 238.842 162.231 228.512 147.93C229.212 148.111 252.463 154.476 256.513 139.813C256.513 139.813 261.229 152.814 288.179 150.869C310.916 149.218 310.788 135.55 310.181 131.322C310.952 135.844 310.743 140.512 309.377 144.978Z" fill="#E6F0F8"/>
<path d="M58.2171 119.055C31.85 117.1 20.2007 134.057 19.8631 134.555C20.1901 133.684 20.5866 132.826 21.0303 132C26.1074 122.062 38.3171 117.348 49.2998 117.891C49.2998 117.891 50.5259 117.947 51.179 118.004C53.5134 118.173 55.929 118.546 58.2171 119.055Z" fill="white"/>
<path d="M116.507 90.0237C102.419 81.3755 86.229 81.3278 70.6999 90.1125C58.1679 97.2022 55.4273 108.994 55.0183 113.505C54.2128 113.301 53.524 113.154 53.0928 113.041C52.1822 101.985 59.7577 91.7989 69.6908 86.96C79.8342 81.2054 92.3228 79.4423 103.423 83.6366C103.714 83.7945 104.053 83.9187 104.38 83.9645C108.605 85.4791 112.725 87.5813 116.507 90.0237Z" fill="white"/>
<path d="M222.7 87.1287C219.269 76.3661 202.181 47.4932 165.017 47.9342C127.713 48.3864 112.726 82.0076 112.726 82.0076C110.836 80.8434 109.236 79.995 108.547 79.7465C118.375 56.3451 142.863 42.5861 168.647 44.5426C189.516 45.5825 210.305 57.5551 219.047 76.253C220.657 79.7923 221.883 83.3306 222.7 87.1287Z" fill="white"/>
<path d="M273.928 98.9316C273.345 99.0334 272.352 99.282 271.22 99.6436C262.828 72.1152 231.99 74.3202 224.824 75.2247C224.556 74.5127 224.263 73.8119 223.961 73.1215C233.952 71.5621 262.14 70.0017 273.928 98.9316Z" fill="white"/>
<path d="M131.599 45.7639C118.538 52.6144 108.43 64.2591 103.072 77.5874C79.378 69.482 45.6341 85.8964 47.1158 112.419C43.6257 112.35 40.1239 112.803 36.7515 113.685C36.1331 111.039 35.3624 106.675 35.1993 101.26C37.7441 94.5334 43.4752 84.664 56.2328 76.468C77.931 62.5399 99.6292 70.2846 99.6292 70.2846C99.6292 70.2846 109.002 53.3273 127.093 43.4458C128.822 44.2605 130.328 45.0519 131.599 45.7639Z" fill="#E8B31C"/>
</svg>
