<svg width="276" height="299" viewBox="0 0 276 299" fill="none" xmlns="http://www.w3.org/2000/svg">
<path d="M11.6844 164.317C14.2441 198.224 53.1311 222.758 86.5482 213.347C98.4572 210.568 108.232 204.424 120.218 201.043C120.587 200.95 120.975 200.95 121.324 201.136C121.926 201.493 122.119 202.244 121.77 202.827C118.298 208.406 113.275 212.369 107.766 215.488C121.691 252.25 157.746 275.413 207.378 255.914C205.012 251.256 203.537 245.658 205.187 240.472C205.671 238.951 208.038 238.744 208.717 240.246C212.945 248.324 217.735 255.275 224.097 261.849C245.47 282.626 277.861 291.661 307.496 286.214C334.223 281.273 363.704 266.959 370.51 239.382C370.49 238.649 370.704 237.936 371.034 237.296C372.216 231.812 372.895 226.081 373.593 220.502C373.709 219.581 374.331 218.735 375.3 218.38C381.08 216.558 381.119 231.567 380.789 234.798C407.049 234.61 416.107 219.356 412.404 199.782C401.251 198.956 389.556 190.821 388.607 179.475C388.548 178.892 388.82 178.31 389.344 177.953C390.275 177.334 391.419 177.746 391.923 178.648C397.334 186.802 406.761 190.727 416.73 190.426C426.04 190.126 436.571 187.609 441.731 179.813C451.564 164.578 438.124 144.496 420.958 141.772C420.958 141.791 420.939 141.81 420.939 141.829C420.144 143.989 414.035 155.205 412.25 148.78C412.521 142.731 413.376 137.133 414.054 131.254C415.567 120.245 413.764 108.843 407.596 99.4498C398.441 85.624 381.587 76.4185 364.558 76.9446C354.26 77.2638 342.894 80.2881 335.717 87.596C336.823 90.5459 339.209 102.586 334.806 103.3C333.505 103.432 332.362 102.548 332.207 101.291C331.567 92.5179 326.776 88.8917 326.776 88.8917C322.024 84.9288 315.818 85.1343 310.62 88.8538C306.741 91.6522 300.787 87.9895 301.951 83.3503C301.951 83.3503 301.951 83.2745 301.971 83.1433C306.121 57.595 295.92 29.4552 270.125 18.7849C253.852 11.7218 234.166 9.63617 216.575 12.06C189.538 15.4982 171.888 37.2702 168.495 62.5737C169.542 63.0052 170.57 63.5124 171.559 64.0385C177.707 67.3441 182.75 72.4162 185.814 78.4837C187.191 81.2457 188.238 84.0251 188.626 87.1252C188.705 87.6324 188.491 88.1586 188.044 88.4778C187.326 88.985 186.318 88.7401 185.871 88.0274C184.63 86.2434 183.311 84.5892 181.915 83.0676C168.939 68.6588 150.03 65.3153 131.274 73.4875C115.544 80.2692 108.891 95.1283 111.782 111.152C112.228 114.288 112.945 117.445 113.781 120.658C113.781 120.677 113.781 120.696 113.781 120.696C114.208 122.311 114.653 123.927 115.099 125.58C113.916 132.586 105.284 115.06 104.994 113.05C104.994 113.05 104.974 113.031 104.955 113.031C73.148 84.8151 28.2282 105.535 15.1756 139.725C14.0891 142.523 13.2359 145.416 12.6159 148.385C12.6159 148.442 12.5963 148.497 12.5963 148.554C12.5181 148.835 12.4804 149.118 12.4218 149.381C11.5099 154.211 11.2195 159.208 11.6844 164.317Z" fill="#FBFBFB"/>
<path d="M8.46555 127.254C24.7385 94.662 70.5295 77.5481 102.803 99.0199C103.152 71.6497 133.156 55.2689 158.991 59.8717C165.371 15.8583 201.563 -4.80603 245.259 1.22362C287.928 5.50719 315.953 33.3467 313.976 75.7452C319.407 74.5238 325.263 75.5193 330.035 78.169C371.133 47.2673 432.228 82.4147 423.655 132.402C465.625 139.991 468.398 197.268 422.258 199.84C426.409 225.163 411.222 244.832 378.911 244.211C372.123 269.026 348.519 285.35 324.412 292.658C285.738 305.996 239.035 295.101 212.852 263.916C158.992 285.707 116.208 263.39 98.9461 219.527C76.9911 228.525 51.2154 227.323 31.2768 213.76C0.551788 195.144 -8.52512 157.856 8.46555 127.254ZM11.6843 164.317C14.244 198.224 53.131 222.758 86.5481 213.347C98.4571 210.568 108.232 204.424 120.218 201.043C120.587 200.95 120.975 200.95 121.324 201.136C121.926 201.493 122.119 202.244 121.769 202.827C118.298 208.406 113.275 212.369 107.766 215.488C121.691 252.25 157.746 275.413 207.377 255.915C205.012 251.256 203.537 245.658 205.186 240.472C205.671 238.951 208.038 238.744 208.717 240.247C212.945 248.324 217.735 255.275 224.097 261.85C245.47 282.626 277.861 291.661 307.496 286.214C334.223 281.273 363.704 266.96 370.51 239.382C370.49 238.649 370.704 237.936 371.033 237.297C372.216 231.812 372.895 226.081 373.593 220.502C373.709 219.581 374.33 218.735 375.3 218.38C381.079 216.558 381.119 231.567 380.789 234.798C407.049 234.61 416.107 219.356 412.403 199.782C401.251 198.956 389.556 190.822 388.606 179.475C388.548 178.892 388.82 178.31 389.344 177.953C390.275 177.334 391.419 177.746 391.923 178.649C397.334 186.802 406.76 190.727 416.73 190.427C426.04 190.126 436.57 187.609 441.73 179.813C451.564 164.578 438.123 144.497 420.958 141.773C420.958 141.791 420.939 141.81 420.939 141.829C420.144 143.989 414.035 155.205 412.25 148.78C412.521 142.732 413.375 137.133 414.054 131.254C415.566 120.245 413.764 108.843 407.596 99.4499C398.44 85.6241 381.587 76.4186 364.558 76.9447C354.259 77.2639 342.894 80.2882 335.717 87.5961C336.823 90.546 339.208 102.586 334.805 103.301C333.505 103.432 332.362 102.548 332.207 101.291C331.567 92.518 326.776 88.8918 326.776 88.8918C322.024 84.9289 315.818 85.1344 310.62 88.8539C306.741 91.6523 300.786 87.9896 301.951 83.3504C306.18 57.7466 295.997 29.4931 270.125 18.7849C253.852 11.7219 234.166 9.63626 216.575 12.0601C189.538 15.4983 171.888 37.2703 168.495 62.5738C176.02 65.7293 182.246 71.4412 185.815 78.4853C187.192 81.2472 188.239 84.0267 188.628 87.1268C188.706 87.634 188.492 88.1601 188.045 88.4793C187.328 88.9865 186.319 88.7417 185.872 88.0289C172.955 69.5071 152.028 64.454 131.275 73.489C115.546 80.2707 108.893 95.1299 111.784 111.154C112.462 115.887 113.743 120.64 115.1 125.581C113.917 132.587 105.286 115.061 104.995 113.051C66.0678 78.4882 7.43777 117.241 11.6843 164.317Z" fill="#2D3963"/>
<path opacity="0.29" d="M11.6847 164.317C14.2444 198.224 53.1314 222.758 86.5485 213.347C98.4574 210.567 108.233 204.424 120.218 201.043C120.587 200.949 120.975 200.949 121.324 201.136C121.926 201.493 122.119 202.244 121.77 202.827C118.298 208.406 113.275 212.369 107.766 215.488C121.692 252.25 157.747 275.413 207.378 255.914C205.012 251.256 203.538 245.658 205.187 240.472C205.671 238.951 208.038 238.744 208.717 240.246C212.946 248.324 217.735 255.275 224.098 261.849C245.47 282.626 277.861 291.661 307.497 286.214C334.223 281.273 363.704 266.959 370.51 239.382C370.491 238.649 370.704 237.936 371.034 237.296C372.217 231.812 372.895 226.081 373.593 220.502C373.709 219.581 374.331 218.735 375.3 218.38C381.08 216.558 381.119 231.567 380.789 234.798C407.05 234.61 416.107 219.356 412.404 199.782C401.252 198.956 389.556 190.821 388.607 179.475C388.548 178.892 388.821 178.31 389.344 177.953C390.276 177.334 391.419 177.746 391.923 178.648C397.335 186.802 406.761 190.727 416.73 190.426C424.876 190.164 433.952 188.21 439.558 182.499C439.558 182.48 439.558 182.48 439.558 182.48C439.558 182.48 398.207 189.638 388.918 156.012C388.918 156.012 388.026 180.752 351.855 185.166C351.855 185.166 360.834 208.572 339.191 224.934C317.565 241.277 259.128 237.238 248.325 198.823C248.325 198.823 217.003 221.44 184.127 192.286C184.127 192.286 177.3 204.045 159.844 203.295C142.389 202.561 134.534 189.581 134.282 177.089C134.282 177.089 90.5226 202.324 58.1409 171.205C58.1409 171.205 22.2183 189.336 11.5899 155.881C11.3943 158.663 11.4334 161.462 11.6847 164.317Z" fill="#B3D6F2"/>
<path d="M168.493 62.5767C169.541 63.0081 170.568 63.5153 171.557 64.0415C172.857 51.9632 191.01 8.04314 247.625 18.3185C304.879 28.7075 302.241 79.4268 301.969 83.1463C306.119 57.5979 295.918 29.4581 270.123 18.7878C253.85 11.7248 234.164 9.63911 216.573 12.0629C189.536 15.5011 171.887 37.2732 168.493 62.5767Z" fill="white"/>
<path d="M111.782 111.155C112.228 114.291 112.946 117.448 113.781 120.661C112.637 115.024 108.485 90.4161 133.525 77.4546C157.634 64.9814 180.248 81.7936 181.915 83.0718C168.939 68.6631 150.03 65.3196 131.274 73.4917C115.544 80.272 108.893 95.1311 111.782 111.155Z" fill="white"/>
<path d="M15.1758 139.728C19.5397 130.448 30.9446 116.935 51.1827 108.236C78.2931 96.583 103.676 112.225 104.955 113.034C73.1483 84.8181 28.2285 105.539 15.1758 139.728Z" fill="white"/>
</svg>
