<svg width="272" height="229" viewBox="0 0 272 229" fill="none" xmlns="http://www.w3.org/2000/svg">
<path d="M262.902 126.324C260.943 152.263 231.195 171.032 205.631 163.832C196.52 161.706 189.042 157.006 179.873 154.42C179.591 154.348 179.294 154.348 179.027 154.491C178.567 154.764 178.419 155.338 178.686 155.784C181.342 160.052 185.185 163.084 189.399 165.47C178.746 193.593 151.164 211.313 113.196 196.396C115.006 192.833 116.134 188.55 114.872 184.583C114.502 183.419 112.691 183.261 112.172 184.41C108.937 190.59 105.273 195.907 100.406 200.937C84.0555 216.831 59.2765 223.742 36.6053 219.576C16.1594 215.796 -6.39326 204.846 -11.6 183.749C-11.585 183.188 -11.7485 182.643 -12.0006 182.154C-12.9054 177.958 -13.4246 173.574 -13.9588 169.306C-14.0474 168.601 -14.5228 167.954 -15.2642 167.682C-19.6858 166.288 -19.7158 177.771 -19.4637 180.242C-39.5528 180.099 -46.4817 168.429 -43.6486 153.455C-35.1173 152.823 -26.1704 146.6 -25.444 137.92C-25.3991 137.474 -25.6075 137.029 -26.0081 136.756C-26.7206 136.282 -27.5955 136.598 -27.9812 137.288C-32.1208 143.525 -39.3317 146.528 -46.9582 146.298C-54.0805 146.068 -62.1364 144.143 -66.0838 138.179C-73.6067 126.524 -63.3245 111.162 -50.193 109.078C-50.193 109.092 -50.1781 109.107 -50.1781 109.121C-49.5703 110.774 -44.8965 119.353 -43.5312 114.438C-43.7384 109.811 -44.3923 105.529 -44.9115 101.031C-46.0684 92.6094 -44.6893 83.8869 -39.9706 76.7008C-32.9669 66.1241 -20.0738 59.0818 -7.04712 59.4844C0.831505 59.7285 9.52631 62.0421 15.0163 67.6326C14.1701 69.8894 12.3455 79.1002 15.7139 79.6466C16.7085 79.7469 17.5834 79.0712 17.7019 78.109C18.1912 71.3979 21.8565 68.6239 21.8565 68.6239C25.4919 65.5922 30.2393 65.7495 34.2155 68.5949C37.1832 70.7356 41.7384 67.9337 40.8474 64.3847C40.8474 64.3847 40.8474 64.3267 40.8324 64.2264C37.6575 44.6819 45.4613 23.1549 65.1947 14.9921C77.6435 9.58892 92.7031 7.99338 106.16 9.8476C126.843 12.4778 140.345 29.1334 142.941 48.4906C142.14 48.8207 141.354 49.2087 140.598 49.6112C135.894 52.14 132.036 56.0201 129.693 60.6618C128.639 62.7747 127.838 64.9009 127.541 67.2725C127.481 67.6605 127.645 68.063 127.987 68.3072C128.536 68.6952 129.307 68.5079 129.649 67.9627C130.599 66.5979 131.607 65.3324 132.675 64.1684C142.602 53.1457 157.067 50.5879 171.416 56.8396C183.449 62.0276 188.538 73.3949 186.327 85.653C185.986 88.0524 185.437 90.4675 184.798 92.9249C184.798 92.9394 184.798 92.9539 184.798 92.9539C184.471 94.1893 184.13 95.4258 183.79 96.6902C184.694 102.05 191.298 88.6423 191.52 87.1047C191.52 87.1047 191.535 87.0902 191.55 87.0902C215.882 65.5053 250.246 81.3559 260.231 107.511C261.062 109.652 261.715 111.865 262.189 114.136C262.189 114.18 262.204 114.222 262.204 114.266C262.264 114.481 262.293 114.697 262.338 114.898C263.035 118.593 263.257 122.416 262.902 126.324Z" fill="#FBFBFB"/>
<path d="M265.364 97.9712C252.915 73.038 217.885 59.9459 193.196 76.3718C192.929 55.4336 169.976 42.9023 150.212 46.4234C145.331 12.7531 117.644 -3.05506 84.2167 1.55762C51.5752 4.83456 30.1358 26.1318 31.6484 58.5667C27.4939 57.6323 23.0135 58.3938 19.3631 60.4209C-12.0765 36.781 -58.8141 63.6688 -52.2559 101.909C-84.3632 107.715 -86.4848 151.532 -51.1876 153.5C-54.3625 172.871 -42.7449 187.918 -18.0269 187.443C-12.834 206.427 5.22328 218.914 23.6651 224.505C53.2502 234.708 88.9779 226.374 109.008 202.518C150.211 219.188 182.941 202.115 196.146 168.56C212.942 175.444 232.66 174.524 247.913 164.148C271.418 149.907 278.362 121.381 265.364 97.9712ZM262.902 126.324C260.943 152.263 231.195 171.032 205.631 163.832C196.52 161.706 189.042 157.006 179.873 154.419C179.591 154.348 179.294 154.348 179.027 154.491C178.567 154.764 178.419 155.338 178.686 155.784C181.342 160.052 185.185 163.084 189.399 165.47C178.746 193.593 151.164 211.312 113.196 196.396C115.006 192.833 116.134 188.55 114.872 184.583C114.502 183.419 112.691 183.261 112.172 184.41C108.937 190.589 105.273 195.907 100.406 200.936C84.0555 216.831 59.2766 223.742 36.6054 219.576C16.1594 215.796 -6.3932 204.846 -11.6 183.749C-11.585 183.188 -11.7485 182.643 -12.0006 182.153C-12.9054 177.958 -13.4246 173.574 -13.9587 169.306C-14.0473 168.601 -14.5228 167.954 -15.2641 167.682C-19.6858 166.288 -19.7157 177.77 -19.4636 180.242C-39.5527 180.099 -46.4816 168.429 -43.6486 153.455C-35.1172 152.823 -26.1703 146.6 -25.444 137.92C-25.3991 137.474 -25.6074 137.029 -26.008 136.756C-26.7206 136.282 -27.5955 136.598 -27.9811 137.288C-32.1207 143.525 -39.3317 146.528 -46.9582 146.298C-54.0805 146.068 -62.1364 144.143 -66.0838 138.179C-73.6067 126.524 -63.3244 111.161 -50.193 109.078C-50.193 109.092 -50.178 109.107 -50.178 109.121C-49.5702 110.773 -44.8965 119.353 -43.5312 114.438C-43.7384 109.811 -44.3922 105.529 -44.9114 101.031C-46.0683 92.6093 -44.6892 83.8868 -39.9706 76.7007C-32.9669 66.124 -20.0737 59.0818 -7.04707 59.4843C0.831558 59.7285 9.52636 62.042 15.0163 67.6326C14.1702 69.8893 12.3456 79.1002 15.7139 79.6465C16.7085 79.7468 17.5834 79.0712 17.702 78.1089C18.1912 71.3979 21.8566 68.6238 21.8566 68.6238C25.492 65.5922 30.2394 65.7494 34.2155 68.5948C37.1833 70.7356 41.7384 67.9336 40.8474 64.3846C37.6127 44.7977 45.4026 23.1838 65.1947 14.992C77.6435 9.58884 92.7031 7.9933 106.16 9.84751C126.843 12.4778 140.346 29.1334 142.941 48.4906C137.184 50.9045 132.422 55.2741 129.691 60.6628C128.638 62.7757 127.837 64.902 127.54 67.2735C127.48 67.6616 127.643 68.0641 127.985 68.3082C128.535 68.6963 129.306 68.5089 129.648 67.9637C139.529 53.7945 155.539 49.9289 171.415 56.8407C183.448 62.0287 188.537 73.3959 186.326 85.654C185.806 89.2755 184.827 92.9114 183.788 96.6912C184.693 102.051 191.296 88.6433 191.519 87.1057C221.298 60.6651 266.15 90.3113 262.902 126.324Z" fill="#2D3963"/>
<path opacity="0.29" d="M262.902 126.324C260.943 152.263 231.195 171.032 205.631 163.832C196.52 161.706 189.042 157.006 179.873 154.419C179.591 154.348 179.294 154.348 179.027 154.491C178.567 154.764 178.419 155.338 178.686 155.784C181.342 160.052 185.185 163.084 189.399 165.47C178.746 193.593 151.164 211.313 113.196 196.396C115.006 192.833 116.134 188.55 114.872 184.583C114.502 183.419 112.691 183.261 112.172 184.41C108.937 190.589 105.273 195.907 100.406 200.936C84.0555 216.831 59.2765 223.742 36.6053 219.576C16.1594 215.796 -6.39324 204.846 -11.6 183.749C-11.585 183.188 -11.7485 182.643 -12.0006 182.154C-12.9054 177.958 -13.4246 173.574 -13.9587 169.306C-14.0474 168.601 -14.5228 167.954 -15.2642 167.682C-19.6858 166.288 -19.7157 177.77 -19.4636 180.242C-39.5527 180.099 -46.4816 168.429 -43.6486 153.455C-35.1173 152.823 -26.1704 146.6 -25.444 137.92C-25.3991 137.474 -25.6074 137.029 -26.008 136.756C-26.7206 136.282 -27.5955 136.598 -27.9812 137.288C-32.1208 143.525 -39.3317 146.528 -46.9582 146.298C-53.1895 146.097 -60.1334 144.602 -64.4215 140.234C-64.4215 140.219 -64.4215 140.219 -64.4215 140.219C-64.4215 140.219 -32.7885 145.695 -25.6823 119.971C-25.6823 119.971 -24.9996 138.897 2.6711 142.274C2.6711 142.274 -4.19795 160.179 12.3594 172.696C28.9028 185.199 73.6075 182.109 81.8717 152.721C81.8717 152.721 105.833 170.024 130.983 147.721C130.983 147.721 136.206 156.716 149.559 156.142C162.913 155.581 168.922 145.651 169.114 136.095C169.114 136.095 202.591 155.4 227.363 131.594C227.363 131.594 254.843 145.464 262.974 119.871C263.124 121.999 263.094 124.14 262.902 126.324Z" fill="#B1B4C8"/>
<path d="M15.0174 67.6349C14.8988 67.9516 14.7653 68.3964 14.6168 68.9428C9.83941 64.2721 -8.14304 57.3749 -26.5411 67.7643C-45.3846 78.4268 -44.39 103.979 -44.2714 106.278C-44.4786 104.539 -44.702 102.8 -44.9092 101.033C-46.0661 92.6116 -44.687 83.8891 -39.9683 76.7031C-32.9646 66.1263 -20.0715 59.0841 -7.04483 59.4866C0.832645 59.7308 9.52745 62.0444 15.0174 67.6349Z" fill="white"/>
<path d="M142.943 48.4926C142.141 48.8226 141.355 49.2107 140.599 49.6132C139.604 40.3733 125.718 6.77442 82.407 14.635C38.6072 22.5826 40.6252 61.3829 40.8336 64.2283C37.6587 44.6838 45.4625 23.1569 65.1959 14.9941C77.6446 9.59086 92.7042 7.99534 106.161 9.84955C126.845 12.4798 140.347 29.1354 142.943 48.4926Z" fill="white"/>
<path d="M186.327 85.6552C185.986 88.0547 185.437 90.4697 184.798 92.9271C185.673 88.6155 188.849 69.7901 169.693 59.8746C151.251 50.3326 133.951 63.1939 132.675 64.1718C142.602 53.149 157.067 50.5913 171.416 56.843C183.449 62.0299 188.537 73.3971 186.327 85.6552Z" fill="white"/>
<path d="M260.231 107.513C256.892 100.414 248.168 90.0772 232.686 83.4219C211.946 74.5076 192.528 86.4736 191.55 87.0924C215.882 65.5075 250.246 81.3592 260.231 107.513Z" fill="white"/>
</svg>
