<svg width="1920" height="1464" viewBox="0 0 1920 1464" fill="none" xmlns="http://www.w3.org/2000/svg">
<path d="M96 25C64 -8.33333 32 -8.33333 0 25V1463.5H1920V25C1888 58.3333 1856 58.3333 1824 25C1792 -8.33333 1760 -8.33333 1728 25C1696 58.3333 1664 58.3333 1632 25C1600 -8.33333 1568 -8.33333 1536 25C1504 58.3333 1472 58.3333 1440 25C1408 -8.33333 1376 -8.33333 1344 25C1312 58.3333 1280 58.3333 1248 25C1216 -8.33333 1184 -8.33333 1152 25C1120 58.3333 1088 58.3333 1056 25C1024 -8.33333 992 -8.33333 960 25C928 58.3333 896 58.3333 864 25C832 -8.33333 800 -8.33333 768 25C736 58.3333 704 58.3333 672 25C640 -8.33333 608 -8.33333 576 25C544 58.3333 512 58.3333 480 25C448 -8.33333 416 -8.33333 384 25C352 58.3333 320 58.3333 288 25C256 -8.33333 224 -8.33333 192 25C160 58.3333 128 58.3333 96 25Z" fill="#4237C8"/>
</svg>
