<svg width="1920" height="1464" viewBox="0 0 1920 1464" fill="none" xmlns="http://www.w3.org/2000/svg">
<path d="M96 1438.5C64 1471.83 32 1471.83 0 1438.5V0H1920V1438.5C1888 1405.17 1856 1405.17 1824 1438.5C1792 1471.83 1760 1471.83 1728 1438.5C1696 1405.17 1664 1405.17 1632 1438.5C1600 1471.83 1568 1471.83 1536 1438.5C1504 1405.17 1472 1405.17 1440 1438.5C1408 1471.83 1376 1471.83 1344 1438.5C1312 1405.17 1280 1405.17 1248 1438.5C1216 1471.83 1184 1471.83 1152 1438.5C1120 1405.17 1088 1405.17 1056 1438.5C1024 1471.83 992 1471.83 960 1438.5C928 1405.17 896 1405.17 864 1438.5C832 1471.83 800 1471.83 768 1438.5C736 1405.17 704 1405.17 672 1438.5C640 1471.83 608 1471.83 576 1438.5C544 1405.17 512 1405.17 480 1438.5C448 1471.83 416 1471.83 384 1438.5C352 1405.17 320 1405.17 288 1438.5C256 1471.83 224 1471.83 192 1438.5C160 1405.17 128 1405.17 96 1438.5Z" fill="#4237C8"/>
</svg>
