<svg width="315" height="272" viewBox="0 0 315 272" fill="none" xmlns="http://www.w3.org/2000/svg">
<path d="M202.467 129.897C202.129 130.432 201.559 130.939 201.503 131.493C201.446 132.092 201.755 132.809 202.097 133.352C205.549 138.843 204.236 143.872 200.644 148.689C200.252 149.219 199.816 149.727 199.455 150.284C199.216 150.645 199.089 151.074 198.718 151.872C199.991 155.027 201.387 158.469 202.916 162.246C204.575 162.156 206.051 162.119 207.528 161.992C209.51 161.818 211.475 161.502 213.452 161.359C225.097 160.54 233.987 165.276 240.424 174.878C244.193 180.496 246.354 186.7 247.157 193.372C247.505 196.227 247.634 199.117 244.917 201.474C240.798 200.599 238.247 196.495 233.992 195.843C233.228 197.507 234.754 198.213 235.465 199.088C239.955 204.611 243.678 210.564 246.422 217.143C251.439 229.153 250.932 241.27 247.151 253.434C245.947 257.296 245.214 257.946 241.619 259.735C240.739 258.617 239.725 257.498 238.895 256.26C235.44 251.149 230.655 248.402 224.517 248.018C222.094 247.867 219.661 247.757 217.242 247.821C206.404 248.085 197.427 243.899 190.104 236.18C187.092 233.008 184.651 229.284 181.962 225.804C181.46 225.158 180.985 224.503 180.154 223.398C178.428 226.918 180.173 230.447 178.553 233.381C177.147 234.609 175.511 234.386 174.336 233.342C172.376 231.611 170.364 229.763 168.993 227.578C162.373 217.009 159.942 205.647 163.336 193.052C160.201 189.57 156.225 186.84 152.476 183.598C149.606 184.151 146.822 184.714 144.028 185.228C140.962 185.795 138.417 185.066 136.39 182.494C135.217 181.003 133.689 179.793 131.397 177.568C132.77 182.051 134.868 184.615 136.54 187.401C138.7 190.993 140.941 194.538 143.164 198.095C144.81 200.733 144.552 203.325 142.279 205.268C138.619 208.426 134.78 211.403 130.849 214.232C128.411 215.991 125.816 215.495 123.522 213.628C122.84 213.07 122.199 212.454 121.54 211.874C109.068 200.976 97.1837 189.469 86.0909 177.151C84.7655 175.673 83.6469 173.986 82.227 172.629C77.7403 168.318 76.7592 163.237 78.6213 157.477C80.1881 152.655 81.7459 147.828 83.4466 143.051C85.2154 138.073 87.1404 133.141 89.0937 127.932C88.1796 126.483 87.3015 124.985 86.3292 123.562C81.8492 117.002 77.3512 110.454 72.8398 103.912C65.5977 93.3975 62.3238 81.6866 62.0333 68.9975C61.8086 59.256 62.4468 49.5813 63.7019 39.95C64.3853 34.703 65.1447 29.4609 65.9175 24.2143C66.1397 22.6904 66.3977 21.1622 66.812 19.6795C67.4674 17.3661 68.9109 15.7767 71.4429 15.6237C74.9636 15.3997 78.4942 14.9788 81.9995 15.1616C91.9699 15.6805 101.682 17.7947 111.184 20.7665C121.758 24.0791 131.753 28.7348 141.372 34.243C145.319 36.4986 148.372 39.434 150.754 43.3187C156.508 52.7209 162.469 62.0033 168.574 71.6845C170.969 71.3162 173.534 70.8325 176.116 70.5367C185.329 69.4955 194.568 68.6468 203.756 67.4579C207.712 66.9497 210.742 68.2035 213.111 71.1177C215.192 73.6726 217.2 76.348 218.822 79.2093C220.995 83.0438 222.862 87.0601 224.667 91.0895C231.076 105.396 237.41 119.743 243.761 134.077C244.65 136.085 245.467 138.124 246.435 140.418C245.071 141.409 243.925 142.387 242.661 143.136C236.767 146.631 230.745 149.871 224.2 152.039C219.734 153.51 218.984 153.287 216.372 149.746C212.311 144.239 208.233 138.744 204.227 133.197C203.48 132.169 203.039 130.915 202.446 129.785C202.257 129.869 202.064 130.007 201.895 129.988C201.778 129.974 201.704 129.723 201.606 129.584C201.896 129.675 202.186 129.788 202.467 129.897ZM144.607 46.5843C135.414 47.0755 127.013 49.2567 118.16 53.5285C104.698 60.0182 92.8969 68.7834 82.62 79.609C79.3067 83.0988 75.9444 86.5526 73.1955 90.7652C74.3976 92.7747 75.4704 94.6852 76.6375 96.5201C94.8276 125.107 116.435 150.951 139.734 175.467C141.87 177.713 143.947 178.193 146.8 177.34C152.533 175.624 158.093 173.518 163.256 170.471C173.568 164.382 182.906 157.027 191.258 148.455C192.939 146.728 194.393 144.763 195.87 142.842C197.049 141.31 197.156 139.615 196.243 137.876C195.419 136.315 194.653 134.728 193.815 133.172C187.31 121.137 180.818 109.097 174.276 97.0879C164.96 80.0431 155.164 63.282 144.607 46.5843ZM241.69 250.692C242.332 250.199 242.592 250.106 242.642 249.941C246.014 239.229 245.833 228.669 241.345 218.272C238.785 212.347 235.355 206.968 231.22 202.028C228.673 198.979 226.026 196.014 223.492 192.96C222.714 192.017 222.17 190.879 221.425 189.672C222.821 188.462 224.088 188.263 225.411 188.35C226.735 188.437 228.063 188.515 229.363 188.736C230.878 188.999 232.401 189.31 233.87 189.774C235.125 190.173 236.307 190.805 237.521 191.33C238.645 191.81 239.783 192.285 240.917 192.769C241.243 191.948 241.581 191.525 241.524 191.171C240.573 185.388 238.251 180.167 234.643 175.583C229.687 169.275 223.196 165.978 215.073 166.461C211.118 166.701 207.193 167.281 203.327 167.7C202.459 168.706 201.69 169.494 201.024 170.367C195.303 177.906 187.919 183.415 179.668 187.846C177.341 189.101 174.947 190.287 172.456 191.156C170.099 191.981 168.71 193.552 168.184 195.786C167.586 198.341 167.027 200.972 166.987 203.575C166.904 209.63 168.356 215.397 171.043 220.826C171.601 221.961 172.383 222.984 173.59 224.895C174.202 222.313 174.43 220.624 175.019 219.062C176.097 216.2 177.288 213.362 178.661 210.627C179.112 209.735 180.202 209.11 181.1 208.488C181.979 207.88 183.6 208.509 183.796 209.539C183.996 210.604 184.161 211.719 184.035 212.787C183.534 217.208 185.018 221.052 187.308 224.677C189.801 228.629 192.879 232.048 196.451 235.066C202.045 239.803 208.364 242.531 215.765 242.612C218.855 242.641 221.945 242.692 225.025 242.918C229.97 243.291 234.556 244.704 238.363 248.077C239.351 248.959 240.447 249.716 241.69 250.692ZM172.217 78.3929C178.844 90.4559 184.973 101.617 191.21 112.967C196.67 112.941 200.206 116.098 203.245 120.08C206.044 123.761 208.866 127.419 211.652 131.105C215.082 135.643 218.49 140.204 221.999 144.872C227.597 143.402 232.315 140.791 237.226 137.975C236.657 136.376 236.301 135.131 235.783 133.961C229.472 119.659 223.179 105.344 216.783 91.0773C215.257 87.6709 213.484 84.3527 211.626 81.1146C210.212 78.6613 208.614 76.2832 206.006 74.5932C195.092 75.8049 184.158 76.6363 172.217 78.3929ZM71.3173 84.4233C74.1953 81.2176 76.0484 79.0845 77.9995 77.0236C80.1215 74.7801 82.2657 72.5591 84.5123 70.4459C86.6015 68.4884 88.7887 66.6254 91.0069 64.8117C93.2341 63.0026 95.5012 61.2473 97.8394 59.5952C100.357 57.8098 102.942 56.1142 105.575 54.4994C108.015 52.9998 110.513 51.5856 113.069 50.2789C115.62 48.9812 118.22 47.7418 120.89 46.6951C123.758 45.5689 126.75 44.7518 129.653 43.7108C132.202 42.7932 135.188 43.0494 137.586 41.1248C131.386 35.9467 119.481 30.6151 105.011 26.4067C94.1954 23.263 80.0414 21.3549 73.5075 22.2617C70.5814 42.4124 66.9129 62.5683 71.3173 84.4233ZM94.5929 135.49C90.9191 142.261 88.5728 149.154 86.5038 156.076C83.9072 164.748 84.2203 163.842 89.7029 170.237C100.619 182.992 112.879 194.421 125.314 205.659C126.084 206.351 127.205 206.661 128.446 207.289C129.999 206.147 131.61 205.023 133.145 203.806C134.146 203.001 135.023 202.044 135.98 201.15C135.298 197.98 133.296 195.846 131.868 193.419C128.409 187.521 124.784 181.73 121.527 175.721C119.869 172.663 118.217 169.439 118.915 165.668C119.232 163.979 118.165 162.811 117.142 161.598C110.46 153.676 103.849 145.701 97.1799 137.775C96.5175 136.98 95.6305 136.385 94.5929 135.49ZM160.966 180.442C161.503 181.173 161.952 181.905 162.516 182.538C164.842 185.139 167.411 185.688 170.764 184.18C178.267 180.805 185.166 176.586 191.04 170.805C192.887 168.994 194.378 166.824 196.124 164.726C195.027 162.221 194.08 160.06 192.979 157.542C187.619 161.777 182.804 165.886 177.665 169.55C172.316 173.365 166.668 176.749 160.966 180.442Z" fill="black"/>
<path d="M144.607 46.5843C155.172 63.2866 164.964 80.0341 174.267 97.0834C180.822 109.088 187.301 121.132 193.806 133.168C194.644 134.724 195.41 136.311 196.234 137.871C197.147 139.611 197.04 141.305 195.861 142.838C194.384 144.758 192.93 146.723 191.249 148.45C182.897 157.022 173.559 164.377 163.247 170.467C158.084 173.514 152.528 175.61 146.791 177.335C143.938 178.189 141.856 177.718 139.725 175.462C116.435 150.951 94.8187 125.102 76.6285 96.5155C75.4525 94.6761 74.3886 92.7702 73.1866 90.7607C75.9355 86.5481 79.3023 83.0854 82.611 79.6045C92.888 68.7789 104.693 60.0048 118.151 53.524C127.013 49.2567 135.41 47.0845 144.607 46.5843ZM143.709 68.0643C128.097 59.7582 107.094 66.4879 98.6038 83.1719C90.809 98.5043 96.1617 118.486 112.48 126.768C129.124 135.227 149.891 128.344 158.051 111.448C167.387 92.121 156.735 73.8397 143.709 68.0643Z" fill="white"/>
<path d="M241.69 250.692C240.443 249.725 239.355 248.972 238.367 248.091C234.551 244.713 229.974 243.304 225.03 242.931C221.954 242.697 218.859 242.655 215.769 242.626C208.364 242.554 202.049 239.817 196.455 235.08C192.884 232.061 189.797 228.638 187.312 224.69C185.031 221.07 183.539 217.221 184.039 212.801C184.16 211.741 183.992 210.613 183.8 209.553C183.613 208.527 181.984 207.893 181.104 208.502C180.22 209.119 179.121 209.74 178.665 210.641C177.292 213.375 176.102 216.214 175.023 219.075C174.434 220.637 174.202 222.336 173.595 224.909C172.388 222.998 171.606 221.974 171.048 220.84C168.36 215.411 166.908 209.643 166.992 203.588C167.032 200.986 167.581 198.35 168.189 195.799C168.719 193.557 170.104 191.994 172.46 191.169C174.951 190.301 177.341 189.101 179.672 187.86C187.923 183.428 195.307 177.919 201.028 170.381C201.69 169.517 202.45 168.724 203.331 167.713C207.197 167.294 211.127 166.705 215.077 166.475C223.201 165.991 229.692 169.288 234.647 175.596C238.256 180.18 240.578 185.402 241.529 191.185C241.585 191.538 241.247 191.961 240.921 192.783C239.788 192.298 238.645 191.832 237.525 191.344C236.311 190.819 235.129 190.187 233.875 189.787C232.406 189.324 230.887 189.003 229.367 188.75C228.067 188.529 226.739 188.45 225.416 188.363C224.092 188.276 222.83 188.467 221.429 189.685C222.174 190.892 222.719 192.031 223.497 192.974C226.026 196.036 228.673 199.001 231.225 202.041C235.359 206.981 238.79 212.36 241.35 218.285C245.838 228.683 246.018 239.243 242.647 249.955C242.592 250.106 242.332 250.199 241.69 250.692Z" fill="#694FDB"/>
<path d="M172.217 78.3929C184.158 76.6363 195.092 75.8048 205.997 74.5887C208.596 76.2741 210.203 78.6568 211.617 81.1101C213.475 84.3482 215.248 87.6664 216.774 91.0728C223.17 105.339 229.463 119.655 235.774 133.957C236.292 135.126 236.648 136.372 237.217 137.971C232.306 140.786 227.588 143.397 221.991 144.868C218.49 140.204 215.082 135.643 211.643 131.1C208.857 127.415 206.026 123.752 203.236 120.075C200.206 116.098 196.67 112.941 191.201 112.963C184.973 101.617 178.835 90.4514 172.217 78.3929Z" fill="white"/>
<path d="M71.3173 84.4233C66.9129 62.5683 70.5814 42.4124 73.4985 22.2796C80.0323 21.3728 94.1863 23.2808 105.002 26.4246C119.472 30.633 131.381 35.9556 137.577 41.1427C135.179 43.0673 132.193 42.811 129.644 43.7286C126.74 44.7697 123.749 45.5868 120.881 46.713C118.215 47.7508 115.615 48.9901 113.06 50.2968C110.508 51.5945 108.006 53.0177 105.566 54.5172C102.932 56.1321 100.357 57.8322 97.8304 59.613C95.4922 61.2651 93.2205 63.0294 90.9979 64.8296C88.7707 66.6388 86.5881 68.4929 84.5032 70.4638C82.2567 72.5769 80.1125 74.798 77.9905 77.0414C76.0484 79.0846 74.1997 81.231 71.3173 84.4233Z" fill="white"/>
<path d="M94.5929 135.49C95.626 136.394 96.5175 136.98 97.1755 137.761C103.845 145.688 110.469 153.659 117.138 161.585C118.16 162.798 119.228 163.966 118.911 165.654C118.208 169.434 119.86 172.658 121.522 175.707C124.784 181.707 128.405 187.508 131.864 193.406C133.292 195.832 135.294 197.967 135.976 201.136C135.023 202.044 134.146 203.001 133.141 203.792C131.61 205.023 129.994 206.133 128.441 207.275C127.201 206.647 126.076 206.347 125.31 205.645C112.875 194.408 100.624 182.983 89.6985 170.224C84.2159 163.828 83.9118 164.739 86.4994 156.062C88.5774 149.145 90.9191 142.261 94.5929 135.49Z" fill="white"/>
<path d="M160.966 180.442C166.664 176.758 172.316 173.365 177.661 169.559C182.8 165.894 187.614 161.786 192.975 157.55C194.076 160.069 195.022 162.23 196.119 164.735C194.382 166.837 192.882 169.003 191.035 170.814C185.162 176.595 178.263 180.814 170.759 184.189C167.407 185.697 164.843 185.139 162.512 182.547C161.96 181.909 161.503 181.173 160.966 180.442Z" fill="white"/>
<path d="M202.467 129.897C202.186 129.788 201.91 129.67 201.619 129.557C201.717 129.696 201.801 129.952 201.908 129.961C202.078 129.98 202.271 129.842 202.459 129.758C202.468 129.763 202.467 129.897 202.467 129.897Z" fill="white"/>
<path d="M143.709 68.0643C156.735 73.8397 167.387 92.121 158.051 111.448C149.891 128.344 129.124 135.227 112.48 126.768C96.1752 118.481 90.809 98.5043 98.6038 83.1719C107.094 66.4879 128.097 59.7583 143.709 68.0643ZM141.579 72.7585C127.563 65.6187 110.514 71.2901 103.293 85.4893C96.3017 99.2336 101.487 115.14 114.918 122.219C126.189 128.16 144.705 126.212 153.276 109.457C161.612 93.1435 152.609 77.8488 141.579 72.7585Z" fill="black"/>
<path d="M141.579 72.7586C152.61 77.8488 161.603 93.139 153.267 109.453C144.705 126.212 126.189 128.16 114.909 122.214C101.478 115.135 96.2973 99.2202 103.284 85.4848C110.514 71.2901 127.572 65.6232 141.579 72.7586ZM145.074 103.053C150.256 92.5954 144.595 80.5953 133.399 78.2904C123.503 76.2514 113.061 82.5771 110.186 92.3525C106.943 103.343 114.16 113.597 125.601 114.289C133.608 114.767 141.537 110.195 145.074 103.053Z" fill="white"/>
<path d="M145.074 103.053C141.537 110.195 133.608 114.767 125.592 114.284C114.151 113.593 106.943 103.342 110.177 92.3479C113.052 82.5725 123.494 76.2468 133.39 78.2859C144.595 80.5953 150.256 92.5953 145.074 103.053ZM135.635 84.6564C127.838 80.575 117.3 85.3171 115.062 93.9239C113.179 101.119 116.905 107.287 124.111 108.883C132.456 110.731 141.416 103.947 141.767 95.4603C141.947 90.6312 139.966 86.9497 135.635 84.6564Z" fill="black"/>
<path d="M135.635 84.6564C139.966 86.9497 141.947 90.6312 141.758 95.4557C141.416 103.947 132.447 110.727 124.102 108.879C116.905 107.287 113.179 101.119 115.053 93.9194C117.314 85.3127 127.842 80.5661 135.635 84.6564Z" fill="white"/>
</svg>
