<svg width="350" height="296" viewBox="0 0 350 296" fill="none" xmlns="http://www.w3.org/2000/svg">
<path d="M417.564 201.428C411.609 225.783 390.657 233.833 367.483 232.668C355.336 232.148 344.576 227.642 332.73 224.886C326.57 225.736 341.157 235.284 343.001 235.504C318.331 287.459 220.863 306.741 171.869 264.648C180.139 259.575 187.639 253.131 192.869 244.83C193.215 244.247 193.199 243.459 192.758 242.892C192.143 242.12 191.009 242.01 190.269 242.657C180.88 249.888 171.112 256.836 160.304 261.64C144.126 269.013 125.977 269.218 109.246 264.066C94.375 259.828 79.8811 251.447 71.3908 238.23C74.9348 237.238 88.4053 231.897 88.4991 228.178C88.3259 227.249 87.4275 226.634 86.4823 226.807C82.8119 227.517 79.3148 228.414 75.8645 229.266C65.9875 231.691 55.6366 234.196 45.6021 231.44C26.4614 226.84 20.3967 203.776 26.7921 186.919C26.7921 186.919 26.7921 186.919 26.8077 186.904C27.2491 185.69 27.7842 184.494 28.3831 183.343C35.2356 169.495 51.715 162.926 66.5382 163.683C66.5382 163.683 68.1931 163.761 69.0745 163.84C72.2254 164.077 75.4869 164.597 78.5739 165.305C79.5661 165.509 80.5269 165.746 81.4722 165.998C82.5281 166.281 83.6934 165.84 84.2923 164.864C86.4028 161.098 78.8421 158.751 74.2578 157.585C74.2578 157.585 74.2578 157.585 74.2578 157.57C73.1706 157.286 72.241 157.081 71.659 156.924C70.4299 141.517 80.6545 127.323 94.0612 120.58C107.752 112.561 124.607 110.104 139.59 115.949C139.983 116.169 140.44 116.342 140.881 116.406C146.584 118.516 152.145 121.447 157.249 124.849C158.761 125.841 160.226 126.897 161.644 127.969C162.527 128.646 163.803 128.63 164.669 127.889C168.15 125.1 158.824 117.917 152.145 113.679C149.593 112.057 147.434 110.875 146.504 110.528C159.769 77.9186 192.821 58.7453 227.62 61.4717C255.788 62.9209 283.846 79.6047 295.645 105.66C297.819 110.591 299.473 115.522 300.575 120.816C300.828 121.95 301.032 123.099 301.221 124.282C301.426 126.046 304.214 126.267 304.656 124.486C306.578 117.854 305.743 110.702 303.442 104.227C303.08 103.235 302.686 102.258 302.277 101.296C315.62 99.1373 353.004 96.9955 369.199 135.985C369.372 136.411 369.545 136.835 369.718 137.261C369.34 137.324 368.851 137.434 368.269 137.592C367.623 137.765 366.867 137.985 366.063 138.253C361.92 139.609 356.375 142.112 356.484 144.713C356.689 145.689 357.65 146.319 358.628 146.115C360.96 145.627 363.323 145.185 365.67 144.854C368.411 144.444 371.168 144.162 373.925 144.067C373.925 144.067 375.547 143.94 376.241 144.035C396.438 143.468 412.616 159.096 417.642 177.654C417.642 177.67 417.658 177.701 417.658 177.717C419.738 185.438 419.865 193.661 417.564 201.428Z" fill="#FBFBFB"/>
<path d="M425.866 174.694C419.943 153.52 400.329 136.381 377.848 136.49C359.621 86.457 311.131 91.7184 298.527 94.0177C276.283 56.3978 225.588 42.7242 186.014 59.171C114.461 11.2952 22.5372 76.9577 42.1661 160.468C12.7071 171.323 5.80646 216.725 32.1628 234.605C41.2521 240.685 52.6108 241.694 63.1661 240.055C71.8934 256.77 89.0173 267.624 106.773 272.618C125.661 278.463 146.629 277.66 164.416 268.648C218.357 318.619 326.79 293.634 350.577 238.055C370.71 243.381 394.766 242.829 411.355 228.84C426.307 215.733 431.128 193.472 425.866 174.694ZM83.8679 67.1432C124.386 37.8417 163.015 54.6817 177.618 63.1734C159.989 72.7196 146.347 88.9464 139.116 107.519C107.136 96.2246 61.592 119.098 63.5918 156.057C58.8812 155.962 54.1549 156.592 49.6031 157.821C46.5955 144.321 40.3876 98.5721 83.8679 67.1432ZM417.564 201.428C411.609 225.783 390.657 233.833 367.483 232.668C355.336 232.148 344.576 227.642 332.73 224.886C326.57 225.736 341.157 235.283 343.001 235.503C318.331 287.458 220.863 306.741 171.869 264.647C180.139 259.575 187.639 253.131 192.869 244.83C193.215 244.246 193.199 243.459 192.758 242.892C192.143 242.12 191.009 242.01 190.269 242.657C180.88 249.888 171.112 256.835 160.304 261.64C144.126 269.013 125.977 269.217 109.246 264.065C94.375 259.827 79.8812 251.446 71.3908 238.23C74.9349 237.238 88.4053 231.897 88.4991 228.178C88.3259 227.249 87.4276 226.634 86.4823 226.807C82.812 227.517 79.3148 228.414 75.8645 229.266C65.9875 231.691 55.6366 234.196 45.6021 231.44C25.0591 226.509 19.5764 200.31 28.3832 183.344C35.2356 169.496 51.715 162.927 66.5383 163.684C66.5383 163.684 68.1931 163.762 69.0745 163.841C73.2175 164.156 77.5662 164.96 81.4722 166C82.5281 166.284 83.6934 165.843 84.2923 164.866C86.908 160.202 74.6979 157.714 71.6577 156.926C70.4286 141.52 80.6532 127.326 94.0599 120.582C107.75 112.563 124.606 110.107 139.588 115.951C139.981 116.171 140.438 116.344 140.88 116.408C148.269 119.149 155.405 123.229 161.643 127.971C162.526 128.648 163.802 128.633 164.667 127.892C169.472 124.033 149.858 111.807 146.503 110.531C159.768 77.9211 192.819 58.7479 227.619 61.4743C255.787 62.9234 283.845 79.6072 295.643 105.663C298.29 111.665 300.165 117.652 301.22 124.284C301.424 126.048 304.213 126.27 304.655 124.488C306.876 116.833 305.411 108.499 302.276 101.299C315.761 99.1242 353.806 96.9511 369.718 137.265C366.787 137.784 356.327 141.157 356.485 144.716C356.689 145.693 357.65 146.323 358.628 146.119C363.7 145.047 368.82 144.259 373.925 144.071C373.925 144.071 375.547 143.944 376.241 144.039C404.867 143.233 425.425 174.962 417.564 201.428Z" fill="#2D3963"/>
<path d="M177.618 63.1735C159.989 72.7198 146.347 88.9466 139.116 107.52C107.136 96.2248 61.592 119.098 63.5918 156.057C58.8812 155.962 54.155 156.592 49.6032 157.821C48.7686 154.135 47.7283 148.053 47.5082 140.507C46.9093 120.421 52.2501 90.0012 83.8679 67.142C119.644 41.2739 153.94 51.3722 171.538 59.9419C173.87 61.0786 175.902 62.1814 177.618 63.1735Z" fill="#F2CF6D"/>
<path d="M194.236 14.4462C192.324 13.4137 189.934 14.1272 188.9 16.0425L176.263 39.468C175.231 41.3833 175.944 43.7725 177.861 44.8036C178.454 45.1239 179.095 45.2763 179.726 45.2763C181.126 45.2763 182.483 44.5263 183.196 43.2074L195.833 19.7818C196.866 17.8679 196.151 15.4787 194.236 14.4462Z" fill="#2D3963"/>
<path d="M152.876 0.0629076C150.732 -0.315974 148.691 1.10321 148.304 3.245L143.695 28.9295C143.312 31.07 144.735 33.1168 146.877 33.5022C147.113 33.5438 147.346 33.5647 147.577 33.5647C149.448 33.5647 151.107 32.2275 151.449 30.3214L156.059 4.63683C156.441 2.49374 155.018 0.446998 152.876 0.0629076Z" fill="#2D3963"/>
<path d="M109.585 3.34007C109.254 1.18916 107.235 -0.287309 105.093 0.0473046C102.942 0.379315 101.468 2.3909 101.8 4.5392L105.762 30.2251C106.062 32.1716 107.739 33.5647 109.65 33.5647C109.851 33.5647 110.051 33.5491 110.254 33.5178C112.405 33.1858 113.879 31.1742 113.547 29.0259L109.585 3.34007Z" fill="#2D3963"/>
<path d="M70.9468 14.4044C69.8532 12.5217 67.4419 11.8864 65.5644 12.9775C63.683 14.0711 63.045 16.4811 64.1387 18.3612L76.9699 40.4431C77.7003 41.7022 79.0205 42.4039 80.3772 42.4039C81.0491 42.4039 81.73 42.2321 82.3524 41.8701C84.2338 40.7764 84.8717 38.3664 83.7781 36.4864L70.9468 14.4044Z" fill="#2D3963"/>
<path d="M37.4594 36.1571C35.9946 34.5504 33.5026 34.4358 31.8947 35.9019C30.288 37.3679 30.1747 39.8587 31.6408 41.4653L48.0264 59.4238C48.8037 60.2753 49.8675 60.7076 50.9377 60.7076C51.8856 60.7076 52.836 60.3678 53.5912 59.679C55.1978 58.213 55.3111 55.7222 53.8451 54.1156L37.4594 36.1571Z" fill="#2D3963"/>
<path d="M31.6173 80.1699L11.8686 70.6041C9.90515 69.6536 7.55504 70.4739 6.60718 72.4321C5.65933 74.3903 6.47829 76.7456 8.4352 77.6935L28.1839 87.2593C28.7373 87.5275 29.3219 87.6538 29.8974 87.6538C31.3608 87.6538 32.7657 86.8361 33.4453 85.4313C34.3932 83.4744 33.5742 81.119 31.6173 80.1699Z" fill="#2D3963"/>
<path d="M26.046 110.673L4.32348 108.546C2.14784 108.345 0.231299 109.918 0.0190727 112.082C-0.193153 114.247 1.39008 116.173 3.55401 116.386L25.2766 118.514C25.4068 118.525 25.5383 118.532 25.6659 118.532C27.6683 118.532 29.3818 117.012 29.581 114.977C29.7945 112.812 28.2113 110.885 26.046 110.673Z" fill="#2D3963"/>
<path d="M25.0266 142.546L4.15555 143.655C1.98381 143.771 0.317246 145.625 0.433124 147.797C0.543794 149.897 2.28196 151.526 4.36256 151.526C4.43287 151.526 4.50448 151.525 4.57479 151.521L25.4458 150.411C27.6176 150.296 29.2841 148.441 29.1683 146.27C29.055 144.097 27.1918 142.42 25.0266 142.546Z" fill="#2D3963"/>
<path opacity="0.29" d="M417.564 201.428C411.609 225.783 390.657 233.833 367.483 232.668C355.336 232.148 344.576 227.642 332.73 224.886C326.57 225.736 341.157 235.284 343.001 235.504C318.331 287.459 220.863 306.741 171.869 264.648C180.139 259.575 187.639 253.131 192.869 244.83C193.215 244.247 193.199 243.459 192.758 242.892C192.143 242.12 191.009 242.01 190.269 242.657C180.88 249.888 171.112 256.836 160.304 261.64C144.126 269.013 125.977 269.218 109.246 264.066C94.375 259.828 79.8811 251.447 71.3908 238.23C74.9348 237.238 88.4053 231.897 88.4991 228.179C88.3259 227.249 87.4275 226.634 86.4823 226.808C82.8119 227.517 79.3148 228.414 75.8645 229.266C65.9875 231.691 55.6366 234.196 45.6021 231.44C31.5496 228.069 24.5396 214.741 24.3339 201.225C24.4446 201.65 28.1306 216.584 49.0836 214.458C70.3518 212.299 75.5976 199.051 75.5976 199.051C75.5976 199.051 82.9864 217.957 107.499 214.664C107.499 214.664 101.686 233.064 123.063 241.271C144.425 249.495 176.894 237.585 184.503 211.276C184.503 211.276 197.027 228.133 220.879 217.861C220.879 217.861 220.248 248.266 262.988 254.221C305.712 260.176 322.363 225.47 308.421 205.542C309.366 205.795 340.747 214.664 346.214 194.23C346.214 194.23 352.579 212.348 388.954 209.637C419.642 207.336 419.469 188.29 418.65 182.399C419.69 188.699 419.408 195.205 417.564 201.428Z" fill="#E6F0F8"/>
<path d="M78.5753 165.305C42.9877 162.58 27.2647 186.21 26.809 186.904C27.2504 185.69 27.7855 184.494 28.3845 183.343C35.2369 169.495 51.7163 162.926 66.5396 163.683C66.5396 163.683 68.1944 163.761 69.0759 163.84C72.2267 164.076 75.4869 164.595 78.5753 165.305Z" fill="white"/>
<path d="M157.249 124.849C138.234 112.798 116.383 112.731 95.4231 124.973C78.5088 134.852 74.8098 151.284 74.2578 157.57C73.1706 157.286 72.241 157.081 71.659 156.924C70.4299 141.517 80.6545 127.323 94.0612 120.58C107.752 112.561 124.607 110.104 139.59 115.949C139.983 116.169 140.44 116.342 140.881 116.406C146.584 118.516 152.145 121.446 157.249 124.849Z" fill="white"/>
<path d="M300.577 120.816C295.945 105.818 272.882 65.5834 222.722 66.198C172.374 66.8282 152.146 113.679 152.146 113.679C149.594 112.057 147.435 110.875 146.506 110.528C159.771 77.9186 192.822 58.7453 227.622 61.4717C255.789 62.9209 283.847 79.6047 295.646 105.66C297.819 110.592 299.474 115.523 300.577 120.816Z" fill="white"/>
<path d="M369.719 137.262C368.932 137.404 367.592 137.751 366.065 138.255C354.737 99.8938 313.116 102.967 303.444 104.227C303.082 103.235 302.687 102.258 302.278 101.296C315.763 99.123 353.809 96.9487 369.719 137.262Z" fill="white"/>
<path d="M177.618 63.1734C159.989 72.7196 146.347 88.9465 139.116 107.519C107.136 96.2246 61.592 119.098 63.5918 156.057C58.8812 155.962 54.1549 156.592 49.6032 157.821C48.7686 154.135 47.7283 148.053 47.5082 140.507C50.9429 131.134 58.6781 117.381 75.897 105.96C105.183 86.5508 134.469 97.3431 134.469 97.3431C134.469 97.3431 147.119 73.7131 171.537 59.9431C173.87 61.0785 175.902 62.1812 177.618 63.1734Z" fill="#E8B31C"/>
</svg>
