<svg width="1920" height="1576" viewBox="0 0 1920 1576" fill="none" xmlns="http://www.w3.org/2000/svg">
<path d="M1728.75 24.2248C1760.25 -8.07492 1791.75 -8.07492 1823.25 24.2248L1824.75 25.7755C1856.5 58.3315 1888.25 58.073 1920 25.0002V1550.5C1888.25 1517.43 1856.5 1517.17 1824.75 1549.72L1823.25 1551.28C1791.75 1583.58 1760.25 1583.58 1728.75 1551.28L1727.25 1549.72C1695.75 1517.43 1664.25 1517.43 1632.75 1549.72L1631.25 1551.28C1599.75 1583.58 1568.25 1583.58 1536.75 1551.28L1535.25 1549.72C1503.75 1517.43 1472.25 1517.43 1440.75 1549.72L1439.25 1551.28C1407.75 1583.58 1376.25 1583.58 1344.75 1551.28L1343.25 1549.72C1311.75 1517.43 1280.25 1517.43 1248.75 1549.72L1247.25 1551.28C1215.75 1583.58 1184.25 1583.58 1152.75 1551.28L1151.25 1549.72C1119.75 1517.43 1088.25 1517.43 1056.75 1549.72L1055.25 1551.28C1023.75 1583.58 992.25 1583.58 960.75 1551.28L959.25 1549.72C927.75 1517.43 896.25 1517.43 864.75 1549.72L863.25 1551.28C831.75 1583.58 800.25 1583.58 768.75 1551.28L767.25 1549.72C735.75 1517.43 704.25 1517.43 672.75 1549.72L671.25 1551.28C639.75 1583.58 608.25 1583.58 576.75 1551.28L575.25 1549.72C543.75 1517.43 512.25 1517.43 480.75 1549.72L479.25 1551.28C447.75 1583.58 416.25 1583.58 384.75 1551.28L383.25 1549.72C351.75 1517.43 320.25 1517.43 288.75 1549.72L287.25 1551.28C255.75 1583.58 224.25 1583.58 192.75 1551.28L191.25 1549.72C159.75 1517.43 128.25 1517.43 96.75 1549.72L95.25 1551.28C63.5 1583.83 31.75 1583.57 0 1550.5V25.0002C31.75 -8.07273 63.5 -8.3313 95.25 24.2248L96.75 25.7755C128.25 58.0751 159.75 58.0751 191.25 25.7755L192.75 24.2248C224.25 -8.07491 255.75 -8.07493 287.25 24.2248L288.75 25.7755C320.25 58.0751 351.75 58.0751 383.25 25.7755L384.75 24.2248C416.25 -8.0749 447.75 -8.07491 479.25 24.2248L480.75 25.7755C512.25 58.0751 543.75 58.0752 575.25 25.7755L576.75 24.2248C608.25 -8.07489 639.75 -8.07491 671.25 24.2248L672.75 25.7755C704.25 58.0751 735.75 58.0752 767.25 25.7755L768.75 24.2248C800.25 -8.07489 831.75 -8.07491 863.25 24.2248L864.75 25.7755C896.25 58.0751 927.75 58.0751 959.25 25.7755L960.75 24.2248C992.25 -8.07492 1023.75 -8.07492 1055.25 24.2248L1056.75 25.7755C1088.25 58.0752 1119.75 58.0752 1151.25 25.7755L1152.75 24.2248C1184.25 -8.07485 1215.75 -8.0749 1247.25 24.2248L1248.75 25.7755C1280.25 58.0751 1311.75 58.0751 1343.25 25.7755L1344.75 24.2248C1376.25 -8.07492 1407.75 -8.07492 1439.25 24.2248L1440.75 25.7755C1472.25 58.0752 1503.75 58.0752 1535.25 25.7755L1536.75 24.2248C1568.25 -8.07488 1599.75 -8.07496 1631.25 24.2248L1632.75 25.7755C1664.25 58.0751 1695.75 58.0751 1727.25 25.7755L1728.75 24.2248Z" fill="#4237C8"/>
</svg>
